<?xml version="1.0" ?><!DOCTYPE svg  PUBLIC '-//W3C//DTD SVG 1.1//EN'  'http://www.w3.org/Graphics/SVG/1.1/DTD/svg11.dtd'><svg enable-background="new 0 0 512 512" id="Layer_1" version="1.1" viewBox="0 0 512 512" xml:space="preserve" xmlns="http://www.w3.org/2000/svg" xmlns:xlink="http://www.w3.org/1999/xlink"><g><path d="M464.8,257.9c0,40.3,0,80.7,0.1,121c0,3.3-0.7,5.4-3.8,7.2c-67,40.7-134,81.5-200.9,122.3c-2.5,1.5-4.2,1.5-6.7,0   c-67.1-40.9-134.2-81.8-201.4-122.6c-2.4-1.5-3.4-3.1-3.4-5.9c0.1-81.7,0.1-163.3,0-245c0-2.8,0.8-4.5,3.3-6   c67-40.7,134-81.5,200.9-122.3c2.8-1.7,4.8-1.8,7.6,0c66.9,40.9,133.9,81.6,200.9,122.3c2.7,1.7,3.3,3.6,3.3,6.5   C464.8,176.2,464.8,217,464.8,257.9z M451.8,257.3c0-37.5-0.1-75,0.1-112.5c0-4.7-1.3-7.4-5.4-9.9C384.6,97.5,322.8,59.8,261,22.1   c-3.1-1.9-5.3-1.8-8.4,0.1C190.5,60.1,128.3,97.9,66.1,135.7c-3.3,2-4.4,4.1-4.4,7.9c0.1,75.8,0.1,151.7,0,227.5   c0,3.7,1,5.9,4.3,7.9c62.1,37.6,124.1,75.4,186,113.2c3.7,2.3,6.1,2.1,9.7-0.1c61.9-37.9,123.9-75.6,186-113.2   c3.1-1.9,4.2-4,4.2-7.5C451.8,333.3,451.8,295.3,451.8,257.3z"/><path d="M329,115.7c0,16.4,0,32.5,0,49.3c-10.3,0-20.6,0.1-30.8-0.1c-5-0.1-9.8,0.5-13.4,4.2c-1.9,1.9-4.1,4.6-4.2,7   c-0.5,10.8-0.2,21.6-0.2,32.9c16.4,0,32.3,0,49.2,0c-2,16.3-4,31.8-5.9,47.8c-14.7,0-28.8,0-43.4,0c0,47.3,0,94.3,0,141.5   c-21.5,0-42.6,0-64.1,0c0-47,0-93.9,0-141.4c-10.6,0-20.7,0-31,0c0-16,0-31.5,0-47.6c10.1,0,20.1,0,30.8,0c0-3.3,0-5.9,0-8.5   c0-11-0.1-22,0-33c0.3-25,14.4-43.2,38.8-49.1c8.3-2,17.1-3.1,25.7-3.4c14.8-0.5,29.7-0.2,44.5-0.2   C326.2,115.4,327.5,115.6,329,115.7z"/></g></svg>