<?xml version="1.0" standalone="no"?>
<!DOCTYPE svg PUBLIC "-//W3C//DTD SVG 20010904//EN"
 "http://www.w3.org/TR/2001/REC-SVG-20010904/DTD/svg10.dtd">
<svg version="1.0" xmlns="http://www.w3.org/2000/svg"
 width="314.000000pt" height="314.000000pt" viewBox="0 0 314.000000 314.000000"
 preserveAspectRatio="xMidYMid meet">
<metadata>
Created by potrace 1.11, written by Peter Selinger 2001-2013
</metadata>
<g transform="translate(0.000000,314.000000) scale(0.100000,-0.100000)"
fill="#000000" stroke="none">
<path d="M1487 3070 c-290 -27 -422 -43 -455 -56 -66 -25 -134 -92 -167 -166
-27 -60 -28 -66 -22 -187 4 -94 11 -141 27 -183 26 -71 91 -140 163 -173 64
-30 100 -31 372 -6 125 12 204 15 210 9 12 -11 13 -171 2 -210 l-7 -28 -204 0
c-247 0 -243 2 -252 -107 -7 -70 -8 -73 -33 -73 -43 0 -237 47 -288 70 -74 33
-107 64 -145 137 -32 61 -91 226 -100 279 -2 13 10 36 33 61 40 44 59 107 59
192 0 55 0 55 -102 67 l-57 7 -3 -79 c-3 -77 -4 -79 -37 -101 -18 -13 -50 -27
-69 -33 -46 -12 -64 -1 -117 74 -22 31 -45 55 -50 53 -6 -1 -32 -26 -59 -54
l-48 -53 48 -60 c27 -34 69 -74 94 -91 39 -27 52 -30 103 -27 l58 3 10 -40
c59 -224 148 -381 250 -442 67 -40 204 -85 331 -108 l98 -19 -5 -35 c-3 -20
-16 -146 -30 -281 -25 -240 -33 -300 -40 -300 -2 0 -34 7 -72 16 -91 21 -211
15 -276 -16 -59 -28 -126 -102 -150 -166 -10 -27 -21 -79 -24 -116 l-6 -66
-40 26 c-34 23 -51 27 -111 27 -119 0 -203 -60 -267 -190 -30 -61 -34 -78 -34
-150 0 -69 4 -86 27 -126 27 -47 76 -85 138 -110 25 -10 81 -14 191 -14 l155
0 27 -42 c54 -87 180 -143 338 -151 132 -6 203 12 246 61 l30 34 29 -24 c48
-39 144 -63 251 -63 111 0 196 19 270 61 l52 29 36 -25 c102 -69 377 -73 457
-7 14 12 21 10 55 -12 99 -69 299 -89 436 -46 126 39 199 138 182 247 -10 70
-77 191 -150 270 l-66 72 17 48 c23 65 29 188 14 255 -29 123 -109 231 -203
277 -40 19 -60 23 -122 19 l-75 -3 0 50 c0 94 -69 194 -165 240 -30 13 -35 21
-40 63 -3 26 -8 63 -10 83 l-5 36 112 22 c140 27 242 74 293 134 46 53 105
176 140 287 l26 86 33 -4 c52 -6 101 24 187 112 44 44 79 83 79 86 -1 3 -23
30 -51 60 l-49 55 -73 -77 c-79 -85 -99 -93 -142 -55 l-26 22 17 60 c9 33 17
71 18 84 1 26 -1 27 -106 45 l-36 7 -22 -95 c-24 -104 -22 -148 10 -189 11
-14 20 -32 20 -40 0 -24 -70 -228 -96 -278 -34 -68 -83 -104 -173 -128 -42
-11 -99 -23 -127 -27 l-52 -6 -7 91 c-10 124 -4 121 -220 121 l-170 0 0 130 0
130 30 5 c17 2 66 7 110 10 122 9 175 28 235 82 76 68 110 144 110 243 -1 230
-58 355 -188 413 -71 31 -140 29 -585 -13z"/>
</g>
</svg>
