<?xml version="1.0" encoding="UTF-8"?>
<!DOCTYPE svg PUBLIC "-//W3C//DTD SVG 1.1//EN" "http://www.w3.org/Graphics/SVG/1.1/DTD/svg11.dtd">
<!-- Creator: CorelDRAW 2017 -->
<svg xmlns="http://www.w3.org/2000/svg" xml:space="preserve" width="20.4724in" height="20.4724in" version="1.1" style="shape-rendering:geometricPrecision; text-rendering:geometricPrecision; image-rendering:optimizeQuality; fill-rule:evenodd; clip-rule:evenodd"
viewBox="0 0 20472.44 20472.44"
 xmlns:xlink="http://www.w3.org/1999/xlink">
 <defs>
  <style type="text/css">
   <![CDATA[
    .str0 {stroke:#201E1E;stroke-width:222.22;stroke-miterlimit:2.61313}
    .str1 {stroke:#0C93FC;stroke-width:138.89;stroke-miterlimit:2.61313}
    .str2 {stroke:#B9B900;stroke-width:138.89;stroke-miterlimit:2.61313}
    .str3 {stroke:#D61A19;stroke-width:138.89;stroke-miterlimit:2.61313}
    .str8 {stroke:#373435;stroke-width:6.94;stroke-miterlimit:2.61313}
    .str4 {stroke:#02B5BA;stroke-width:3;stroke-miterlimit:2.61313}
    .str7 {stroke:#03FF4A;stroke-width:3;stroke-miterlimit:2.61313}
    .str6 {stroke:#D61A19;stroke-width:3;stroke-miterlimit:2.61313}
    .str5 {stroke:#FFC20F;stroke-width:3;stroke-miterlimit:2.61313}
    .fil0 {fill:none}
    .fil9 {fill:#201E1E}
    .fil1 {fill:#0C93FC}
    .fil2 {fill:#B9B900}
    .fil3 {fill:#D61A19}
    .fil4 {fill:#02B5BA;fill-rule:nonzero}
    .fil7 {fill:#03FF4A;fill-rule:nonzero}
    .fil6 {fill:#D61A19;fill-rule:nonzero}
    .fil8 {fill:#D61A19;fill-rule:nonzero}
    .fil5 {fill:#FFC20F;fill-rule:nonzero}
   ]]>
  </style>
 </defs>
 <g id="Layer_x0020_1">
  <metadata id="CorelCorpID_0Corel-Layer"/>
  <circle class="fil0 str0" cx="10245.64" cy="10935.21" r="6194.91"/>
     
    
      
     
  <circle class="fil1 str1" cx="10245.64" cy="4740.3" r="4527.56"/>
  <circle class="fil2 str2" cx="15831.82" cy="13616.47" r="4527.56"/>
  <circle class="fil3 str3" cx="4640.61" cy="13616.47" r="4527.56"/>
  <path class="fil4 str4" d="M2100.49 15432.48l237.31 0 0 121.41 -93.82 0 0 478.57 93.82 0 0 121.41 -237.31 0 0 -721.39zm313.13 0l431.26 0 0 121.41 -256.23 0 0 98.55 219.18 0 0 114.32 -219.18 0 0 230.22 -175.03 0 0 -564.5zm526.52 0l156.89 0 0 564.5 -156.89 0 0 -564.5zm301.17 206.56c42.05,-40.47 98.81,-60.71 170.3,-60.71 81.86,0 143.62,23.78 185.41,71.35 33.5,38.37 50.33,85.54 50.33,141.52 0,63.07 -20.76,114.58 -62.42,154.92 -41.65,40.21 -99.34,60.31 -172.93,60.31 -65.57,0 -118.65,-16.69 -159.13,-50.2 -95.23,-79.14 -100.87,-231.25 -11.56,-317.2zm93.82 154.26c0,36.66 7.36,63.73 22.07,81.21 14.72,17.48 33.11,26.28 55.45,26.28 22.47,0 40.87,-8.67 55.32,-25.89 14.46,-17.22 21.68,-44.94 21.68,-83.05 0,-35.61 -7.22,-62.02 -21.81,-79.5 -14.59,-17.35 -32.59,-26.02 -54.14,-26.02 -22.73,0 -41.52,8.8 -56.37,26.41 -14.85,17.74 -22.21,44.54 -22.21,80.55zm327.98 -205.51l151.5 0 65.83 256.89 83.57 -256.89 140.33 0 86.46 257.28 65.96 -257.28 150.59 0 -150.45 409.19 -139.29 0 -82.78 -246.25 -80.02 246.25 -140.07 0 -151.63 -409.19zm802.46 409.19l0 -564.5 290.66 0c53.87,0 95.13,4.6 123.52,13.93 28.51,9.2 51.51,26.41 68.98,51.38 17.48,25.09 26.15,55.71 26.15,91.72 0,31.28 -6.7,58.34 -20.11,81.07 -13.27,22.86 -31.67,41.26 -55.19,55.45 -14.85,8.93 -35.35,16.43 -61.23,22.34 20.76,6.96 35.87,13.8 45.33,20.76 6.31,4.6 15.64,14.59 27.86,29.7 12.09,15.11 20.24,26.81 24.31,35.08l84.76 163.07 -197.1 0 -93.17 -172.14c-11.83,-22.33 -22.34,-36.79 -31.54,-43.49 -12.61,-8.67 -26.94,-13.01 -42.84,-13.01l-15.37 0 0 228.64 -175.03 0zm175.03 -335.07l73.72 0c7.89,0 23.39,-2.63 46.26,-7.75 11.56,-2.23 21.02,-8.15 28.25,-17.74 7.36,-9.59 11.04,-20.5 11.04,-32.85 0,-18.26 -5.78,-32.32 -17.35,-42.05 -11.56,-9.85 -33.24,-14.72 -65.17,-14.72l-76.74 0 0 115.11zm386.32 131.67c0,-62.55 21.02,-114.06 63.07,-154.53 42.05,-40.47 98.81,-60.71 170.3,-60.71 81.86,0 143.62,23.78 185.41,71.35 33.5,38.37 50.33,85.54 50.33,141.52 0,63.07 -20.76,114.58 -62.42,154.92 -41.65,40.21 -99.34,60.31 -172.93,60.31 -65.57,0 -118.65,-16.69 -159.13,-50.2 -49.8,-41.39 -74.64,-95.66 -74.64,-162.67zm156.89 -0.26c0,36.66 7.36,63.73 22.07,81.21 14.72,17.48 33.11,26.28 55.45,26.28 22.47,0 40.87,-8.67 55.32,-25.89 14.46,-17.22 21.68,-44.94 21.68,-83.05 0,-35.61 -7.22,-62.02 -21.81,-79.5 -14.59,-17.35 -32.59,-26.02 -54.14,-26.02 -22.73,0 -41.52,8.8 -56.37,26.41 -14.85,17.74 -22.21,44.54 -22.21,80.55zm388.69 -360.83l158.47 0 0 195c15.64,-16.43 33.38,-28.65 53.35,-36.93 19.84,-8.15 41.78,-12.22 65.96,-12.22 49.8,0 90.93,17.87 123.52,53.74 32.59,35.87 48.88,87.38 48.88,154.53 0,44.68 -7.49,84.1 -22.34,118.26 -14.85,34.04 -35.48,59.53 -61.76,76.35 -26.28,16.82 -55.45,25.23 -87.51,25.23 -27.46,0 -52.69,-5.91 -75.43,-17.74 -17.21,-9.33 -36,-26.67 -56.24,-52.3l0 60.57 -146.91 0 0 -564.5zm157.29 358.33c0,35.35 6.57,60.97 19.84,76.74 13.14,15.9 29.83,23.78 50.07,23.78 18.66,0 34.43,-7.75 47.04,-23.39 12.75,-15.64 19.06,-41.79 19.06,-78.58 0,-32.46 -6.18,-56.37 -18.66,-71.48 -12.35,-15.24 -27.46,-22.86 -45.07,-22.86 -21.28,0 -38.63,7.89 -52.03,23.78 -13.54,15.77 -20.24,39.81 -20.24,72.01zm348.87 2.76c0,-62.55 21.02,-114.06 63.07,-154.53 42.05,-40.47 98.81,-60.71 170.3,-60.71 81.86,0 143.62,23.78 185.41,71.35 33.5,38.37 50.33,85.54 50.33,141.52 0,63.07 -20.76,114.58 -62.42,154.92 -41.65,40.21 -99.34,60.31 -172.93,60.31 -65.57,0 -118.65,-16.69 -159.13,-50.2 -49.8,-41.39 -74.64,-95.66 -74.64,-162.67zm156.89 -0.26c0,36.66 7.36,63.73 22.07,81.21 14.72,17.48 33.11,26.28 55.45,26.28 22.47,0 40.87,-8.67 55.32,-25.89 14.46,-17.22 21.68,-44.94 21.68,-83.05 0,-35.61 -7.22,-62.02 -21.81,-79.5 -14.59,-17.35 -32.59,-26.02 -54.14,-26.02 -22.73,0 -41.52,8.8 -56.37,26.41 -14.85,17.74 -22.21,44.54 -22.21,80.55zm577.12 -360.83l0 155.31 85.94 0 0 115.11 -85.94 0 0 144.8c0,17.34 1.71,28.91 4.99,34.56 5.13,8.67 14.19,13.01 27.07,13.01 11.56,0 27.72,-3.28 48.62,-9.99l11.56 108.41c-38.76,8.54 -74.9,12.74 -108.54,12.74 -39.02,0 -67.8,-4.99 -86.33,-14.98 -18.39,-9.98 -32.06,-25.23 -41,-45.59 -8.8,-20.37 -13.27,-53.48 -13.27,-99.08l0 -143.88 -57.56 0 0 -115.11 57.56 0 0 -75.03 156.89 -80.28zm368.06 0l-237.31 0 0 121.41 93.82 0 0 478.57 -93.82 0 0 121.41 237.31 0 0 -721.39z"/>
  <g id="_2914739460624">
   <path class="fil5 str5" d="M8167.73 2904.79c-58.25,0 -129.93,-19.52 -215.02,-58.86 -84.79,-39.35 -149.44,-106.14 -194.28,-200.38 -44.53,-93.94 -67.1,-197.63 -67.1,-310.78 0,-68.02 14.94,-182.08 44.83,-342.2 5.49,-29.28 13.11,-75.64 23.18,-139.38 19.22,-126.88 32.33,-203.13 39.65,-228.74 7.63,-25.62 19.22,-46.06 35.38,-61.3 16.16,-15.25 34.77,-22.87 56.42,-22.87 14.94,0 30.19,14.33 46.06,42.7 15.56,28.06 23.48,50.02 23.48,65.57 0,11.89 -13.72,65.88 -40.87,161.65 -14.33,48.19 -29.89,133.59 -46.66,256.19 -16.47,122.3 -25.01,208.61 -25.01,258.63 0,167.13 39.34,280.89 117.42,340.37 78.38,59.47 144.26,89.36 197.02,89.36 102.48,0 189.7,-15.56 261.38,-46.97 71.98,-31.11 126.27,-88.15 163.17,-170.19 36.9,-82.35 63.13,-235.15 78.69,-458.41 15.56,-228.13 34.46,-370.26 56.73,-426.68 22.27,-56.12 53.98,-84.48 95.16,-84.48 40.57,0 60.69,33.24 60.69,99.12 0,56.12 -11.59,147.92 -34.77,275.41 -14.94,78.69 -25.93,170.49 -33.24,276.02 -6.41,83.26 -14.94,156.77 -25.93,220.2 -10.67,63.44 -28.06,116.51 -52.46,158.59 -24.4,42.39 -55.51,82.04 -92.72,118.95 -37.21,36.9 -75.94,69.23 -116.51,97.29 -40.56,28.06 -96.38,50.32 -167.44,66.49 -71.37,16.47 -133.59,24.7 -187.26,24.7zm1523.43 -432.48c-79.6,128.09 -164.39,226.91 -253.75,296.15 -89.36,69.54 -171.41,104.31 -246.43,104.31 -57.95,0 -103.7,-22.26 -137.25,-66.8 -33.55,-44.22 -50.63,-103.39 -50.63,-177.2 0,-150.67 61.31,-305.3 183.61,-463.89 122.61,-158.29 254.67,-237.59 396.49,-237.59 61.91,0 119.25,26.54 172.32,79.61l125.04 -584.37c9.15,-39.95 25.62,-66.79 49.72,-80.52 24.09,-13.72 43,-20.44 56.73,-20.44 41.78,0 62.52,36.91 62.52,110.71 0,13.11 -13.72,61.91 -41.18,146.4 -43.31,131.15 -84.79,292.18 -123.52,483.11 -39.04,190.93 -58.56,344.03 -58.56,459.62 0,119.25 25.93,178.72 77.77,178.72 33.24,0 67.71,-10.98 103.39,-32.94 14.94,-10.67 28.97,-16.16 42.09,-16.16 19.21,0 28.67,12.5 28.67,37.51 0,30.5 -26.84,65.57 -79.91,105.53 -53.37,39.95 -107.97,59.78 -164.09,59.78 -98.2,0 -147.31,-94.55 -147.31,-284.25 0,-32.02 1.22,-64.66 4.27,-97.29zm-117.12 -418.15c-96.38,0 -191.84,65.27 -286.69,196.11 -94.85,130.84 -142.13,251.62 -142.13,362.33 0,74.42 24.7,111.63 74.11,111.63 46.67,0 103.09,-24.4 169.57,-73.2 66.19,-48.8 134.5,-126.57 204.96,-233.63 70.15,-107.05 105.53,-187.26 105.53,-240.94 0,-26.23 -12.2,-53.07 -36.3,-80.82 -24.09,-27.76 -53.68,-41.48 -89.06,-41.48zm864.35 829.27c-4.27,14.94 -15.56,27.45 -34.16,37.52 -18.3,10.06 -36.91,15.25 -55.2,15.25 -60.69,0 -91.19,-44.53 -91.19,-133.28 0,-42.39 14.03,-161.95 42.09,-359.28 17.08,-120.78 25.93,-212.58 25.93,-275.1 0,-10.68 -12.51,-24.7 -37.82,-42.09 -25.62,-16.47 -38.43,-32.94 -38.43,-49.1 0,-25.62 19.52,-53.37 58.25,-82.96 29.89,-23.18 48.19,-49.1 54.9,-77.77 7.02,-28.67 14.64,-68.32 23.79,-118.94 30.19,-184.52 77.77,-317.8 142.43,-399.24 64.66,-81.74 147.01,-122.61 247.04,-122.61 53.07,0 97.9,18 134.81,54.29 37.21,35.99 55.51,80.82 55.51,134.2 0,43.61 -10.37,93.02 -30.8,147.92 -20.44,55.2 -43.92,82.65 -70.15,82.65 -19.52,0 -29.58,-9.76 -29.58,-29.28l6.41 -86.92c0,-114.98 -32.33,-172.32 -96.69,-172.32 -69.54,0 -127.18,68.32 -173.23,204.96 -45.75,136.94 -68.63,247.96 -68.63,333.96 0,27.15 17.69,40.87 53.37,40.87 155.55,0 247.04,-0.61 274.8,-1.83 27.75,-0.91 41.48,10.67 41.48,35.07 0,24.4 -14.94,43 -44.83,55.81 -30.2,12.81 -95.77,24.09 -197.33,34.46 -86.31,8.85 -135.11,16.17 -146.4,22.26 -39.95,221.43 -59.78,419.06 -59.78,592.3 0,51.85 2.44,90.28 7.01,115.29 4.27,23.18 6.41,37.82 6.41,43.92zm1252.6 -873.8c51.85,71.37 77.77,154.02 77.77,248.26 0,154.93 -61.3,298.28 -183.6,430.65 -122.61,132.37 -249.79,198.24 -382.16,198.24 -30.19,0 -59.17,-4.57 -86.61,-14.03l-39.35 57.95c-32.02,45.14 -52.46,68.01 -60.69,68.01 -14.94,0 -30.19,-7.93 -45.75,-23.18 -15.25,-15.55 -23.18,-31.11 -23.18,-46.66 0,-14.33 19.22,-57.65 57.34,-130.54 -55.51,-63.74 -83.26,-141.52 -83.26,-233.93 0,-153.72 51.85,-305.3 155.24,-454.44 103.09,-149.14 226.91,-223.87 371.17,-223.87 43.92,0 85.4,8.85 124.13,25.93 49.41,-64.35 84.48,-96.38 105.52,-96.38 11.9,0 26.84,10.68 44.53,32.02 17.99,21.66 26.84,38.74 26.84,51.85 0,14.94 -19.22,51.54 -57.95,110.1zm-595.04 636.82c7.02,-11.29 14.33,-22.27 22.26,-32.94 108.27,-156.76 202.21,-303.77 281.51,-441.32l19.52 -31.41c22.57,-35.07 40.26,-63.74 52.76,-85.7l11.59 -18.91c-16.17,-5.19 -34.16,-7.93 -54.59,-7.93 -95.77,0 -178.11,58.87 -247.04,176.59 -68.62,117.42 -103.09,229.66 -103.09,336.41 0,40.87 5.49,76.25 17.08,105.22zm499.27 -500.19l-88.45 120.47c-17.69,22.57 -31.72,42.39 -41.78,59.17 -6.1,8.85 -23.18,32.63 -50.93,71.37 -24.7,34.46 -41.48,61 -50.93,79.61 -29.28,59.47 -88.14,147.92 -176.28,265.34 9.76,2.44 19.82,3.66 30.5,3.66 88.76,0 177.81,-48.8 267.17,-146.09 89.36,-97.6 133.89,-205.87 133.89,-324.81 0,-46.67 -7.63,-89.36 -23.18,-128.71zm562.1 341.29c6.1,-10.67 13.11,-25.62 21.65,-44.83 40.56,-92.72 77.77,-165.61 111.63,-218.37 33.85,-52.76 71.37,-103.09 112.24,-151.28 40.56,-48.49 78.07,-85.09 111.63,-110.1 33.55,-25.01 64.05,-42.39 91.5,-52.15 27.45,-9.76 53.98,-14.94 79.6,-14.94 51.85,0 93.94,15.86 126.88,46.97 32.63,31.42 49.1,67.71 49.1,109.49 0,18.61 -5.8,35.07 -17.38,50.02 -11.59,14.94 -29.28,22.26 -53.07,22.26 -25.01,0 -48.19,-10.98 -68.93,-32.94 -21.35,-21.96 -43.92,-32.94 -67.1,-32.94 -61.91,0 -147.61,75.03 -257.11,225.08 -109.8,150.06 -176.59,315.36 -200.38,495.92 -5.8,46.36 -17.08,77.16 -33.85,92.11 -16.78,14.64 -40.26,22.27 -70.45,22.27 -29.28,0 -50.32,-21.66 -63.44,-65.27 -13.11,-43.61 -19.82,-116.81 -19.82,-219.9 0,-27.75 1.52,-89.67 4.57,-184.82 3.35,-112.54 10.67,-203.43 21.35,-272.67 1.83,-11.28 4.88,-37.82 8.84,-79.3 4.27,-46.06 9.46,-77.78 15.86,-95.77 6.1,-17.69 18.91,-34.46 38.43,-50.02 19.21,-15.56 40.26,-23.18 62.83,-23.18 21.96,0 38.73,7.01 49.71,21.04 10.98,14.03 16.47,28.97 16.47,45.14 0,23.18 -6.1,55.81 -17.99,98.21 -13.72,46.97 -21.65,79.6 -24.09,97.29 -1.83,20.43 -4.88,41.48 -9.76,63.44 -6.1,25.62 -11.89,93.02 -18,201.91l-0.91 33.24 0 24.09zm-4431.68 1674.92c-79.6,128.09 -164.39,226.91 -253.75,296.15 -89.36,69.54 -171.41,104.31 -246.43,104.31 -57.95,0 -103.7,-22.26 -137.25,-66.8 -33.55,-44.22 -50.63,-103.39 -50.63,-177.2 0,-150.67 61.31,-305.3 183.61,-463.89 122.61,-158.29 254.67,-237.59 396.49,-237.59 61.91,0 119.25,26.54 172.32,79.61l125.04 -584.37c9.15,-39.95 25.62,-66.79 49.72,-80.52 24.09,-13.72 43,-20.44 56.73,-20.44 41.78,0 62.52,36.91 62.52,110.71 0,13.11 -13.72,61.91 -41.18,146.4 -43.31,131.15 -84.79,292.18 -123.52,483.11 -39.04,190.93 -58.56,344.03 -58.56,459.62 0,119.25 25.93,178.72 77.77,178.72 33.24,0 67.71,-10.98 103.39,-32.94 14.94,-10.67 28.97,-16.16 42.09,-16.16 19.21,0 28.67,12.5 28.67,37.51 0,30.5 -26.84,65.57 -79.91,105.53 -53.37,39.95 -107.97,59.78 -164.09,59.78 -98.2,0 -147.31,-94.55 -147.31,-284.25 0,-32.02 1.22,-64.66 4.27,-97.29zm-117.12 -418.15c-96.38,0 -191.84,65.27 -286.69,196.11 -94.85,130.84 -142.13,251.62 -142.13,362.33 0,74.42 24.7,111.63 74.11,111.63 46.67,0 103.09,-24.4 169.57,-73.2 66.19,-48.8 134.5,-126.57 204.96,-233.63 70.15,-107.05 105.53,-187.26 105.53,-240.94 0,-26.23 -12.2,-53.07 -36.3,-80.82 -24.09,-27.76 -53.68,-41.48 -89.06,-41.48zm1288.59 462.98c-83.26,111.93 -165.92,195.81 -247.35,251.93 -81.74,55.81 -156.46,83.87 -224.48,83.87 -45.75,0 -85.4,-19.21 -118.64,-57.95 -33.55,-38.73 -50.02,-88.44 -50.02,-149.44 0,-156.46 69.84,-325.12 209.83,-505.98 139.99,-180.86 279.07,-271.14 417.23,-271.14 50.02,0 87.23,28.37 111.93,85.7 7.63,18.91 19.82,28.67 36.6,28.67 47.58,0 71.37,18.3 71.37,55.2 0,18.61 -3.05,43.92 -8.85,75.94 -32.33,175.67 -48.19,299.81 -48.19,371.78 0,144.26 27.15,230.57 82.04,259.24 26.23,14.33 39.34,31.72 39.34,52.46 0,18.61 -12.81,37.21 -38.43,56.12 -25.62,18.61 -50.32,28.06 -74.11,28.06 -46.06,0 -83.87,-31.72 -113.46,-94.85 -29.89,-63.13 -44.83,-153.11 -44.83,-269.61zm-54.29 -503.24c-78.69,0 -170.19,73.81 -274.49,221.12 -104.31,147.61 -156.46,269.92 -156.46,366.9 0,68.32 22.87,102.78 68.01,102.78 65.57,0 156.46,-66.19 272.66,-198.55 116.2,-132.06 174.15,-253.75 174.15,-364.46 0,-85.09 -28.06,-127.79 -83.87,-127.79zm1157.74 504.76c-7.01,-5.19 -27.14,11.59 -59.78,50.02 -54.29,63.74 -123.52,120.47 -207.7,169.88 -84.48,49.41 -162.56,74.11 -234.54,74.11 -53.68,0 -95.77,-16.78 -126.26,-50.33 -30.2,-33.85 -45.44,-80.21 -45.44,-139.99 0,-92.11 34.77,-195.2 104.61,-308.65 69.54,-113.46 167.14,-212.58 292.49,-297.06 125.35,-84.48 235.15,-126.88 329.39,-126.88 49.41,0 93.02,14.33 130.54,43 8.84,7.02 16.47,12.81 23.18,17.69 10.67,7.93 20.74,23.48 30.19,46.97 9.76,23.48 14.33,42.39 14.33,56.73 0,8.85 -3.35,22.57 -9.76,41.17 -36.29,98.82 -61,180.86 -74.11,245.52 -13.11,64.96 -27.45,174.45 -43,328.17 -14.33,138.16 -29.59,244.3 -46.36,319.02 -16.78,74.42 -46.67,146.39 -90.28,215.93 -43.61,69.84 -95.77,122 -156.46,157.07 -60.69,34.77 -123.22,52.15 -187.57,52.15 -111.32,0 -221.42,-38.43 -329.69,-115.29 -108.27,-76.86 -162.56,-138.46 -162.56,-184.83 0,-29.28 10.98,-43.92 32.94,-43.92 10.67,0 42.7,17.69 95.77,52.76 139.99,93.63 265.95,140.3 377.88,140.3 97.6,0 172.02,-52.15 222.95,-156.46 50.94,-104.31 85.7,-259.85 104,-467.25 4.27,-46.97 9.15,-86.92 15.25,-119.86zm-1.83 -490.43c-50.63,0 -113.76,26.23 -189.7,78.69 -75.94,52.46 -149.75,129.31 -221.43,230.57 -71.37,101.26 -107.05,186.04 -107.05,254.67 0,23.18 7.32,41.48 21.96,54.9 14.64,13.42 30.81,20.13 48.5,20.13 53.07,0 122.3,-27.45 207.7,-82.35 85.7,-54.59 159.21,-130.84 220.81,-228.13 61.61,-97.59 92.41,-173.84 92.41,-229.35 0,-66.18 -24.4,-99.12 -73.2,-99.12zm733.5 -698.73c43,0 64.35,27.45 64.35,82.35 0,48.8 -25.93,165 -77.78,348.3 -32.63,115.59 -57.94,243.08 -75.94,382.46 -18,139.38 -26.84,248.57 -26.84,327.87 0,98.2 6.41,196.11 18.91,293.09 2.44,18.61 3.35,32.02 3.35,40.26 0,29.89 -10.07,55.51 -30.19,76.86 -20.44,21.35 -41.79,32.02 -64.35,32.02 -31.72,0 -53.37,-19.52 -65.57,-58.86 -12.2,-39.35 -18.3,-102.78 -18.3,-190.31 0,-199.46 23.79,-446.81 71.67,-741.74 48.19,-294.62 86.31,-467.25 114.37,-517.26 28.36,-50.02 57.03,-75.03 86.31,-75.03zm498.66 316.28c-12.51,0 -21.96,-13.42 -28.67,-40.26 -2.44,-8.24 -5.49,-17.39 -9.76,-27.76 -16.17,-38.43 -24.09,-72.28 -24.09,-100.95 0,-23.79 14.03,-47.89 42.39,-72.59 28.36,-24.7 59.78,-37.21 94.24,-37.21 17.39,0 36.6,6.71 58.26,20.13 21.35,13.42 32.02,26.23 32.02,38.73 0,19.83 -7.32,53.07 -21.96,100.34 -14.64,46.97 -37.82,78.69 -69.54,95.16 -32.02,16.17 -56.12,24.4 -72.89,24.4zm-117.12 998.24c0,45.14 6.41,96.07 18.91,152.8 2.44,10.68 3.35,19.52 3.35,26.54 0,10.98 -9.76,24.7 -29.28,41.78 -19.82,16.78 -40.56,25.31 -62.52,25.31 -57.95,0 -86.62,-53.07 -86.62,-158.9 0,-109.8 22.57,-283.03 67.71,-520.01 15.56,-82.96 23.18,-133.89 23.18,-152.8 0,-37.51 7.02,-69.54 20.74,-96.07 13.72,-26.54 32.94,-39.96 57.95,-39.96 30.5,0 54.29,7.32 71.98,21.96 17.69,14.64 26.23,30.8 26.23,48.8 0,17.69 -3.96,41.48 -12.5,70.45 -44.53,157.37 -72.28,269.92 -82.96,337.93 -10.68,67.71 -16.17,148.53 -16.17,242.17zm990 -125.35c-7.01,-5.19 -27.14,11.59 -59.78,50.02 -54.29,63.74 -123.52,120.47 -207.7,169.88 -84.48,49.41 -162.56,74.11 -234.54,74.11 -53.68,0 -95.77,-16.78 -126.26,-50.33 -30.2,-33.85 -45.44,-80.21 -45.44,-139.99 0,-92.11 34.77,-195.2 104.61,-308.65 69.54,-113.46 167.14,-212.58 292.49,-297.06 125.35,-84.48 235.15,-126.88 329.39,-126.88 49.41,0 93.02,14.33 130.54,43 8.84,7.02 16.47,12.81 23.18,17.69 10.67,7.93 20.74,23.48 30.19,46.97 9.76,23.48 14.33,42.39 14.33,56.73 0,8.85 -3.35,22.57 -9.76,41.17 -36.29,98.82 -61,180.86 -74.11,245.52 -13.11,64.96 -27.45,174.45 -43,328.17 -14.33,138.16 -29.59,244.3 -46.36,319.02 -16.78,74.42 -46.67,146.39 -90.28,215.93 -43.61,69.84 -95.77,122 -156.46,157.07 -60.69,34.77 -123.22,52.15 -187.57,52.15 -111.32,0 -221.42,-38.43 -329.69,-115.29 -108.27,-76.86 -162.56,-138.46 -162.56,-184.83 0,-29.28 10.98,-43.92 32.94,-43.92 10.67,0 42.7,17.69 95.77,52.76 139.99,93.63 265.95,140.3 377.88,140.3 97.6,0 172.02,-52.15 222.95,-156.46 50.94,-104.31 85.7,-259.85 104,-467.25 4.27,-46.97 9.15,-86.92 15.25,-119.86zm-1.83 -490.43c-50.63,0 -113.76,26.23 -189.7,78.69 -75.94,52.46 -149.75,129.31 -221.43,230.57 -71.37,101.26 -107.05,186.04 -107.05,254.67 0,23.18 7.32,41.48 21.96,54.9 14.64,13.42 30.81,20.13 48.5,20.13 53.07,0 122.3,-27.45 207.7,-82.35 85.7,-54.59 159.21,-130.84 220.81,-228.13 61.61,-97.59 92.41,-173.84 92.41,-229.35 0,-66.18 -24.4,-99.12 -73.2,-99.12zm1185.5 511.17c0,60.7 -53.68,133.89 -161.04,219.9 -107.66,85.7 -218.68,128.4 -333.05,128.4 -95.76,0 -169.88,-28.06 -222.03,-84.79 -52.15,-56.43 -78.08,-135.42 -78.08,-236.67 0,-170.49 57.34,-332.44 172.32,-486.16 114.98,-153.72 240.94,-230.57 377.28,-230.57 44.53,0 81.13,14.64 109.49,43.92 28.06,28.97 42.39,64.35 42.39,105.22 0,91.8 -45.14,179.64 -135.11,263.82 -89.97,83.87 -210.14,166.52 -360.81,247.35 -31.11,16.17 -46.36,36.91 -46.36,62.52 0,49.41 14.03,89.06 42.7,118.94 28.67,29.89 71.06,44.53 126.87,44.53 128.1,0 258.94,-70.76 392.22,-212.58 19.82,-19.52 34.77,-29.59 44.83,-29.59 18.91,0 28.36,15.25 28.36,45.75zm-620.96 -139.38c252.84,-150.06 379.1,-270.83 379.1,-362.03 0,-35.68 -16.16,-53.68 -48.49,-53.68 -54.59,0 -116.51,40.26 -185.44,120.78 -68.62,80.52 -117.11,178.72 -145.17,294.93zm-5738.42 2176.93c-81.43,0 -148.83,-30.8 -201.9,-92.72 -53.07,-61.91 -79.6,-138.46 -79.6,-229.66 0,-153.72 51.85,-305.3 155.24,-454.44 103.09,-149.14 226.91,-223.87 371.17,-223.87 95.16,0 172.63,36.6 231.8,110.1 59.17,73.2 89.06,160.43 89.06,261.69 0,154.93 -61.3,298.28 -183.6,430.65 -122.61,132.37 -249.79,198.24 -382.16,198.24zm-124.13 -345.56c0,60.08 12.5,109.19 37.82,147.31 25.31,38.13 58.86,57.34 100.65,57.34 88.76,0 177.81,-48.8 267.17,-146.09 89.36,-97.6 133.89,-205.87 133.89,-324.81 0,-73.5 -17.08,-132.67 -51.24,-178.42 -34.16,-45.44 -80.21,-68.32 -138.16,-68.32 -95.77,0 -178.11,58.87 -247.04,176.59 -68.62,117.42 -103.09,229.66 -103.09,336.41zm1070.52 197.33c-29.28,107.36 -56.43,257.72 -82.04,451.39l-25.01 168.66c-4.27,23.79 -15.25,47.58 -33.24,71.06 -17.69,23.48 -34.16,35.38 -49.11,35.38 -18.6,0 -39.34,-9.45 -63.13,-28.06 -23.48,-18.91 -35.07,-33.85 -35.07,-45.14 0,-32.94 7.32,-78.08 22.26,-136.03 108.88,-440.1 163.48,-826.83 163.48,-1159.57l-0.92 -75.03c-1.22,-64.35 10.07,-111.32 33.85,-140.3 24.09,-29.28 51.24,-43.92 82.35,-43.92 14.33,0 28.06,11.28 41.18,33.55 13.11,22.27 19.52,53.98 19.52,95.16 0,57.65 -5.79,127.79 -17.69,209.83 -15.56,103.7 -23.48,163.48 -24.09,178.72 88.76,-154.63 182.69,-275.71 282.12,-362.63 99.43,-86.92 191.84,-130.54 277.24,-130.54 60.09,0 110.71,22.57 152.19,67.4 41.48,45.14 62.22,100.95 62.22,167.75 0,193.97 -74.42,370.56 -223.56,528.85 -148.83,158.59 -294.01,237.59 -434.92,237.59 -35.38,0 -63.13,-8.84 -83.57,-26.53 -20.74,-18 -42.09,-50.63 -64.05,-97.6zm554.78 -719.17c-83.87,0 -187.87,78.69 -311.7,235.76 -123.83,157.38 -185.74,279.68 -185.74,367.21 0,21.65 12.2,42.39 36.6,62.52 24.4,20.43 55.2,30.5 92.72,30.5 85.4,0 183.3,-63.13 294.01,-189.09 111.02,-125.96 166.22,-249.48 166.22,-371.17 0,-43.61 -8.85,-76.86 -26.23,-100.65 -17.69,-23.48 -39.65,-35.07 -65.88,-35.07zm1087.6 499.27c-7.01,-5.19 -27.14,11.59 -59.78,50.02 -54.29,63.74 -123.52,120.47 -207.7,169.88 -84.48,49.41 -162.56,74.11 -234.54,74.11 -53.68,0 -95.77,-16.78 -126.26,-50.33 -30.2,-33.85 -45.44,-80.21 -45.44,-139.99 0,-92.11 34.77,-195.2 104.61,-308.65 69.54,-113.46 167.14,-212.58 292.49,-297.06 125.35,-84.48 235.15,-126.88 329.39,-126.88 49.41,0 93.02,14.33 130.54,43 8.84,7.02 16.47,12.81 23.18,17.69 10.67,7.93 20.74,23.48 30.19,46.97 9.76,23.48 14.33,42.39 14.33,56.73 0,8.85 -3.35,22.57 -9.76,41.17 -36.29,98.82 -61,180.86 -74.11,245.52 -13.11,64.96 -27.45,174.45 -43,328.17 -14.33,138.16 -29.59,244.3 -46.36,319.02 -16.78,74.42 -46.67,146.39 -90.28,215.93 -43.61,69.84 -95.77,122 -156.46,157.07 -60.69,34.77 -123.22,52.15 -187.57,52.15 -111.32,0 -221.42,-38.43 -329.69,-115.29 -108.27,-76.86 -162.56,-138.46 -162.56,-184.83 0,-29.28 10.98,-43.92 32.94,-43.92 10.67,0 42.7,17.69 95.77,52.76 139.99,93.63 265.95,140.3 377.88,140.3 97.6,0 172.02,-52.15 222.95,-156.46 50.94,-104.31 85.7,-259.85 104,-467.25 4.27,-46.97 9.15,-86.92 15.25,-119.86zm-1.83 -490.43c-50.63,0 -113.76,26.23 -189.7,78.69 -75.94,52.46 -149.75,129.31 -221.43,230.57 -71.37,101.26 -107.05,186.04 -107.05,254.67 0,23.18 7.32,41.48 21.96,54.9 14.64,13.42 30.81,20.13 48.5,20.13 53.07,0 122.3,-27.45 207.7,-82.35 85.7,-54.59 159.21,-130.84 220.81,-228.13 61.61,-97.59 92.41,-173.84 92.41,-229.35 0,-66.18 -24.4,-99.12 -73.2,-99.12zm1022.94 488.9c-83.26,111.93 -165.92,195.81 -247.35,251.93 -81.74,55.81 -156.46,83.87 -224.48,83.87 -45.75,0 -85.4,-19.21 -118.64,-57.95 -33.55,-38.73 -50.02,-88.44 -50.02,-149.44 0,-156.46 69.84,-325.12 209.83,-505.98 139.99,-180.86 279.07,-271.14 417.23,-271.14 50.02,0 87.23,28.37 111.93,85.7 7.63,18.91 19.82,28.67 36.6,28.67 47.58,0 71.37,18.3 71.37,55.2 0,18.61 -3.05,43.92 -8.85,75.94 -32.33,175.67 -48.19,299.81 -48.19,371.78 0,144.26 27.15,230.57 82.04,259.24 26.23,14.33 39.34,31.72 39.34,52.46 0,18.61 -12.81,37.21 -38.43,56.12 -25.62,18.61 -50.32,28.06 -74.11,28.06 -46.06,0 -83.87,-31.72 -113.46,-94.85 -29.89,-63.13 -44.83,-153.11 -44.83,-269.61zm-54.29 -503.24c-78.69,0 -170.19,73.81 -274.49,221.12 -104.31,147.61 -156.46,269.92 -156.46,366.9 0,68.32 22.87,102.78 68.01,102.78 65.57,0 156.46,-66.19 272.66,-198.55 116.2,-132.06 174.15,-253.75 174.15,-364.46 0,-85.09 -28.06,-127.79 -83.87,-127.79zm697.51 839.03c1.22,-34.46 -24.09,-123.83 -75.94,-268.09 -98.21,-268.7 -147.31,-455.66 -147.31,-561.19 0,-83.87 28.06,-125.96 83.87,-125.96 54.9,0 82.35,37.52 82.35,112.54 0,61.61 1.83,108.57 5.8,141.82 3.66,32.94 17.99,93.33 42.39,181.47 24.4,87.83 51.24,169.27 80.52,244.3 14.64,39.35 25.62,69.24 32.02,90.28 12.51,-19.22 28.67,-45.44 48.19,-78.69 104.92,-176.28 188.48,-312.31 250.7,-407.47 62.22,-95.46 113.15,-164.69 152.19,-208.31 39.35,-43.31 68.32,-69.54 86.93,-78.08 18.3,-8.54 37.21,-13.11 56.12,-13.11 23.18,0 41.48,8.54 54.9,25.01 13.42,16.78 20.13,35.99 20.13,57.34 0,28.06 -24.4,58.25 -73.2,91.19 -45.75,30.8 -113.46,108.57 -202.82,233.01 -89.36,124.74 -185.74,283.34 -289.43,476.4 -53.07,97.6 -93.94,146.4 -122.61,146.4 -25.01,0 -53.07,-19.52 -84.79,-58.87zm1592.06 -313.53c0,60.7 -53.68,133.89 -161.04,219.9 -107.66,85.7 -218.68,128.4 -333.05,128.4 -95.76,0 -169.88,-28.06 -222.03,-84.79 -52.15,-56.43 -78.08,-135.42 -78.08,-236.67 0,-170.49 57.34,-332.44 172.32,-486.16 114.98,-153.72 240.94,-230.57 377.28,-230.57 44.53,0 81.13,14.64 109.49,43.92 28.06,28.97 42.39,64.35 42.39,105.22 0,91.8 -45.14,179.64 -135.11,263.82 -89.97,83.87 -210.14,166.52 -360.81,247.35 -31.11,16.17 -46.36,36.91 -46.36,62.52 0,49.41 14.03,89.06 42.7,118.94 28.67,29.89 71.06,44.53 126.87,44.53 128.1,0 258.94,-70.76 392.22,-212.58 19.82,-19.52 34.77,-29.59 44.83,-29.59 18.91,0 28.36,15.25 28.36,45.75zm-620.96 -139.38c252.84,-150.06 379.1,-270.83 379.1,-362.03 0,-35.68 -16.16,-53.68 -48.49,-53.68 -54.59,0 -116.51,40.26 -185.44,120.78 -68.62,80.52 -117.11,178.72 -145.17,294.93z"/>
   <path class="fil5 str5" d="M13140.46 5867.89c6.1,-10.67 13.11,-25.62 21.65,-44.83 40.56,-92.72 77.77,-165.61 111.63,-218.37 33.85,-52.76 71.37,-103.09 112.24,-151.28 40.56,-48.49 78.07,-85.09 111.63,-110.1 33.55,-25.01 64.05,-42.39 91.5,-52.15 27.45,-9.76 53.98,-14.94 79.6,-14.94 51.85,0 93.94,15.86 126.88,46.97 32.63,31.42 49.1,67.71 49.1,109.49 0,18.61 -5.8,35.07 -17.38,50.02 -11.59,14.94 -29.28,22.26 -53.07,22.26 -25.01,0 -48.19,-10.98 -68.93,-32.94 -21.35,-21.96 -43.92,-32.94 -67.1,-32.94 -61.91,0 -147.61,75.03 -257.11,225.08 -109.8,150.06 -176.59,315.36 -200.38,495.92 -5.8,46.36 -17.08,77.16 -33.85,92.11 -16.78,14.64 -40.26,22.27 -70.45,22.27 -29.28,0 -50.32,-21.66 -63.44,-65.27 -13.11,-43.61 -19.82,-116.81 -19.82,-219.9 0,-27.75 1.52,-89.67 4.57,-184.82 3.35,-112.54 10.67,-203.43 21.35,-272.67 1.83,-11.28 4.88,-37.82 8.84,-79.3 4.27,-46.06 9.46,-77.78 15.86,-95.77 6.1,-17.69 18.91,-34.46 38.43,-50.02 19.21,-15.56 40.26,-23.18 62.83,-23.18 21.96,0 38.73,7.01 49.71,21.04 10.98,14.03 16.47,28.97 16.47,45.14 0,23.18 -6.1,55.81 -17.99,98.21 -13.72,46.97 -21.65,79.6 -24.09,97.29 -1.83,20.43 -4.88,41.48 -9.76,63.44 -6.1,25.62 -11.89,93.02 -18,201.91l-0.91 33.24 0 24.09z"/>
  </g>
  <path class="fil6 str6" d="M7595.72 7400.96l247.57 0 0 126.66 -97.88 0 0 499.25 97.88 0 0 126.66 -247.57 0 0 -752.57zm326.67 0l449.9 0 0 126.66 -267.31 0 0 102.81 228.65 0 0 119.26 -228.65 0 0 240.17 -182.59 0 0 -588.9zm549.29 0l163.68 0 0 588.9 -163.68 0 0 -588.9zm248.39 376.7c0,-65.25 21.93,-118.99 65.8,-161.21 43.87,-42.22 103.08,-63.33 177.66,-63.33 85.4,0 149.83,24.81 193.42,74.43 34.96,40.03 52.5,89.24 52.5,147.64 0,65.8 -21.66,119.54 -65.11,161.62 -43.46,41.95 -103.63,62.92 -180.4,62.92 -68.4,0 -123.78,-17.41 -166,-52.37 -51.95,-43.18 -77.86,-99.8 -77.86,-169.7zm163.67 -0.28c0,38.24 7.68,66.48 23.03,84.72 15.35,18.23 34.54,27.42 57.85,27.42 23.44,0 42.63,-9.05 57.71,-27.01 15.08,-17.96 22.62,-46.88 22.62,-86.63 0,-37.15 -7.54,-64.7 -22.76,-82.93 -15.22,-18.09 -34,-27.14 -56.48,-27.14 -23.72,0 -43.32,9.19 -58.81,27.55 -15.49,18.51 -23.17,46.47 -23.17,84.03zm342.16 -214.39l158.06 0 68.68 267.99 87.19 -267.99 146.4 0 90.2 268.41 68.81 -268.41 157.09 0 -156.96 426.87 -145.3 0 -86.36 -256.89 -83.48 256.89 -146.13 0 -158.19 -426.87zm837.15 426.87l0 -588.9 303.22 0c56.2,0 99.25,4.8 128.86,14.53 29.74,9.59 53.74,27.55 71.97,53.6 18.23,26.18 27.28,58.12 27.28,95.68 0,32.63 -6.99,60.87 -20.97,84.58 -13.84,23.85 -33.04,43.04 -57.57,57.85 -15.49,9.32 -36.87,17.13 -63.88,23.3 21.66,7.26 37.42,14.39 47.29,21.66 6.58,4.8 16.31,15.22 29.06,30.98 12.61,15.77 21.11,27.96 25.36,36.6l88.42 170.12 -205.62 0 -97.19 -179.57c-12.34,-23.31 -23.3,-38.39 -32.9,-45.37 -13.16,-9.05 -28.1,-13.57 -44.69,-13.57l-16.04 0 0 238.52 -182.59 0zm182.59 -349.56l76.9 0c8.22,0 24.4,-2.74 48.25,-8.09 12.06,-2.33 21.93,-8.5 29.47,-18.5 7.68,-10.01 11.52,-21.39 11.52,-34.27 0,-19.06 -6.03,-33.72 -18.09,-43.87 -12.06,-10.28 -34.68,-15.35 -67.99,-15.35l-80.06 0 0 120.08zm403.02 137.36c0,-65.25 21.93,-118.99 65.8,-161.21 43.87,-42.22 103.08,-63.33 177.66,-63.33 85.4,0 149.83,24.81 193.42,74.43 34.96,40.03 52.5,89.24 52.5,147.64 0,65.8 -21.66,119.54 -65.11,161.62 -43.46,41.95 -103.63,62.92 -180.4,62.92 -68.4,0 -123.78,-17.41 -166,-52.37 -51.95,-43.18 -77.86,-99.8 -77.86,-169.7zm163.67 -0.28c0,38.24 7.68,66.48 23.03,84.72 15.35,18.23 34.54,27.42 57.85,27.42 23.44,0 42.63,-9.05 57.71,-27.01 15.08,-17.96 22.62,-46.88 22.62,-86.63 0,-37.15 -7.54,-64.7 -22.76,-82.93 -15.22,-18.09 -34,-27.14 -56.48,-27.14 -23.72,0 -43.32,9.19 -58.81,27.55 -15.49,18.51 -23.17,46.47 -23.17,84.03zm405.49 -376.43l165.32 0 0 203.43c16.31,-17.13 34.82,-29.89 55.65,-38.52 20.7,-8.5 43.59,-12.75 68.81,-12.75 51.96,0 94.86,18.64 128.86,56.07 34,37.42 50.99,91.16 50.99,161.2 0,46.61 -7.81,87.73 -23.3,123.37 -15.49,35.5 -37.01,62.1 -64.43,79.65 -27.41,17.55 -57.85,26.32 -91.3,26.32 -28.65,0 -54.97,-6.17 -78.69,-18.51 -17.96,-9.73 -37.56,-27.83 -58.67,-54.56l0 63.19 -153.26 0 0 -588.9zm164.09 373.82c0,36.87 6.85,63.6 20.7,80.06 13.71,16.59 31.12,24.81 52.23,24.81 19.46,0 35.92,-8.09 49.07,-24.4 13.3,-16.31 19.88,-43.59 19.88,-81.97 0,-33.86 -6.44,-58.81 -19.46,-74.57 -12.89,-15.9 -28.65,-23.85 -47.02,-23.85 -22.21,0 -40.3,8.22 -54.28,24.81 -14.12,16.45 -21.11,41.54 -21.11,75.12zm363.95 2.88c0,-65.25 21.93,-118.99 65.8,-161.21 43.87,-42.22 103.08,-63.33 177.66,-63.33 85.4,0 149.83,24.81 193.42,74.43 34.96,40.03 52.5,89.24 52.5,147.64 0,65.8 -21.66,119.54 -65.11,161.62 -43.46,41.95 -103.63,62.92 -180.4,62.92 -68.4,0 -123.78,-17.41 -166,-52.37 -51.95,-43.18 -77.86,-99.8 -77.86,-169.7zm163.67 -0.28c0,38.24 7.68,66.48 23.03,84.72 15.35,18.23 34.54,27.42 57.85,27.42 23.44,0 42.63,-9.05 57.71,-27.01 15.08,-17.96 22.62,-46.88 22.62,-86.63 0,-37.15 -7.54,-64.7 -22.76,-82.93 -15.22,-18.09 -34,-27.14 -56.48,-27.14 -23.72,0 -43.32,9.19 -58.81,27.55 -15.49,18.51 -23.17,46.47 -23.17,84.03zm602.06 -376.43l0 162.03 89.65 0 0 120.08 -89.65 0 0 151.06c0,18.09 1.78,30.16 5.21,36.05 5.35,9.05 14.8,13.57 28.24,13.57 12.06,0 28.93,-3.43 50.72,-10.42l12.06 113.09c-40.44,8.91 -78.13,13.3 -113.23,13.3 -40.71,0 -70.73,-5.21 -90.06,-15.63 -19.19,-10.42 -33.45,-26.32 -42.77,-47.57 -9.19,-21.25 -13.85,-55.8 -13.85,-103.36l0 -150.1 -60.04 0 0 -120.08 60.04 0 0 -78.28 163.68 -83.76zm383.96 0l-247.57 0 0 126.66 97.88 0 0 499.25 -97.88 0 0 126.66 247.57 0 0 -752.57z"/>
  <path class="fil5 str5" d="M1183.12 14107.06c-95.16,0 -179.94,-47.28 -254.06,-142.13 -74.11,-94.55 -111.32,-193.06 -111.32,-294.93 0,-120.17 36.6,-257.41 110.1,-411.74 73.2,-154.33 168.66,-280.29 286.69,-377.58 118.03,-97.3 240.64,-146.09 368.13,-146.09 97.59,0 179.03,11.9 243.99,36.3 64.96,24.09 123.22,58.56 175.07,104 51.85,45.14 86.31,91.8 103.7,139.38 17.08,47.58 25.92,114.37 25.92,200.07 0,81.13 -24.4,175.68 -73.2,284.25 -49.1,108.27 -125.05,214.11 -228.44,317.19 -103.39,103.09 -201.3,177.2 -293.4,222.95 -92.41,45.44 -210.14,68.32 -353.18,68.32zm-201.91 -444.98c0,82.65 26.23,152.5 78.69,208.92 52.46,56.73 113.15,85.09 182.39,85.09 179.94,0 345.25,-82.96 495.91,-248.57 150.67,-165.61 226,-341.29 226,-527.03 0,-71.06 -13.72,-126.87 -41.48,-167.44 -27.75,-40.87 -72.28,-75.94 -133.59,-104.61 -61.3,-28.97 -130.23,-43.31 -206.48,-43.31 -133.59,0 -267.17,90.28 -400.76,271.44 -133.59,181.17 -200.69,356.23 -200.69,525.5zm1480.74 276.93c-29.28,107.36 -56.43,257.72 -82.04,451.39l-25.01 168.66c-4.27,23.79 -15.25,47.58 -33.24,71.06 -17.69,23.48 -34.16,35.38 -49.11,35.38 -18.6,0 -39.34,-9.45 -63.13,-28.06 -23.48,-18.91 -35.07,-33.85 -35.07,-45.14 0,-32.94 7.32,-78.08 22.26,-136.03 108.88,-440.1 163.48,-826.83 163.48,-1159.57l-0.92 -75.03c-1.22,-64.35 10.07,-111.32 33.85,-140.3 24.09,-29.28 51.24,-43.92 82.35,-43.92 14.33,0 28.06,11.28 41.18,33.55 13.11,22.27 19.52,53.98 19.52,95.16 0,57.65 -5.79,127.79 -17.69,209.83 -15.56,103.7 -23.48,163.48 -24.09,178.72 88.76,-154.63 182.69,-275.71 282.12,-362.63 99.43,-86.92 191.84,-130.54 277.24,-130.54 60.09,0 110.71,22.57 152.19,67.4 41.48,45.14 62.22,100.95 62.22,167.75 0,193.97 -74.42,370.56 -223.56,528.85 -148.83,158.59 -294.01,237.59 -434.92,237.59 -35.38,0 -63.13,-8.84 -83.57,-26.53 -20.74,-18 -42.09,-50.63 -64.05,-97.6zm554.78 -719.17c-83.87,0 -187.87,78.69 -311.7,235.76 -123.83,157.38 -185.74,279.68 -185.74,367.21 0,21.65 12.2,42.39 36.6,62.52 24.4,20.43 55.2,30.5 92.72,30.5 85.4,0 183.3,-63.13 294.01,-189.09 111.02,-125.96 166.22,-249.48 166.22,-371.17 0,-43.61 -8.85,-76.86 -26.23,-100.65 -17.69,-23.48 -39.65,-35.07 -65.88,-35.07zm819.51 -78.69c61.3,-4.88 119.25,-10.37 173.24,-17.08 53.68,-5.8 98.51,-8.85 134.2,-8.85 45.14,0 73.81,4.27 85.7,12.5 11.89,8.24 18,22.88 18,43.92 0,48.19 -33.85,74.42 -100.95,78.38 -86.62,5.49 -165.92,12.81 -238.81,22.57 -72.59,9.45 -111.63,17.38 -117.43,23.48 -5.49,6.41 -23.48,77.16 -53.98,212.58 -30.5,135.72 -45.75,223.56 -45.75,264.12 0,65.57 8.85,109.19 25.93,130.84 17.39,21.96 43.31,32.63 77.78,32.63 51.24,0 122.61,-38.43 213.8,-115.29 35.07,-31.41 62.22,-47.28 81.13,-47.28 25.62,0 38.43,13.72 38.43,41.18 0,43 -41.17,98.51 -123.83,166.52 -82.35,68.32 -166.83,102.48 -253.14,102.48 -144.26,0 -216.24,-85.09 -216.24,-254.67 0,-61.31 14.94,-156.46 44.53,-285.17 29.28,-128.09 43.92,-204.95 43.92,-230.57 0,-8.84 -7.32,-13.42 -21.35,-13.42l-93.02 8.23c-76.25,0 -114.37,-30.5 -114.37,-91.19 0,-34.46 17.38,-51.85 52.76,-51.85l183.91 0c12.5,0 23.48,-5.8 33.24,-17.08 9.45,-11.28 23.48,-49.1 41.78,-113.76 18.6,-64.66 35.07,-128.7 49.1,-191.84 14.33,-62.52 42.39,-93.63 84.18,-93.63 25.62,0 45.44,8.85 59.78,26.84 14.33,17.69 21.35,34.46 21.35,50.02 0,8.24 -10.68,50.93 -32.02,127.79l-51.85 187.57zm782 -294.93c-12.51,0 -21.96,-13.42 -28.67,-40.26 -2.44,-8.24 -5.49,-17.39 -9.76,-27.76 -16.17,-38.43 -24.09,-72.28 -24.09,-100.95 0,-23.79 14.03,-47.89 42.39,-72.59 28.36,-24.7 59.78,-37.21 94.24,-37.21 17.39,0 36.6,6.71 58.26,20.13 21.35,13.42 32.02,26.23 32.02,38.73 0,19.83 -7.32,53.07 -21.96,100.34 -14.64,46.97 -37.82,78.69 -69.54,95.16 -32.02,16.17 -56.12,24.4 -72.89,24.4zm-117.12 998.24c0,45.14 6.41,96.07 18.91,152.8 2.44,10.68 3.35,19.52 3.35,26.54 0,10.98 -9.76,24.7 -29.28,41.78 -19.82,16.78 -40.56,25.31 -62.52,25.31 -57.95,0 -86.62,-53.07 -86.62,-158.9 0,-109.8 22.57,-283.03 67.71,-520.01 15.56,-82.96 23.18,-133.89 23.18,-152.8 0,-37.51 7.02,-69.54 20.74,-96.07 13.72,-26.54 32.94,-39.96 57.95,-39.96 30.5,0 54.29,7.32 71.98,21.96 17.69,14.64 26.23,30.8 26.23,48.8 0,17.69 -3.96,41.48 -12.5,70.45 -44.53,157.37 -72.28,269.92 -82.96,337.93 -10.68,67.71 -16.17,148.53 -16.17,242.17zm1033 -508.42c-55.51,1.22 -174.15,165.31 -355.62,492.26 -61.61,110.1 -97.29,170.19 -107.36,179.94 -10.06,9.76 -28.67,18.61 -55.81,26.54 -27.15,7.63 -49.72,11.59 -67.41,11.59 -39.95,0 -60.08,-77.78 -60.08,-233.32 0,-87.54 18.91,-246.13 56.43,-475.48 15.55,-92.72 23.18,-159.2 23.18,-199.16 0,-39.34 17.69,-58.86 52.76,-58.86 66.19,0 99.12,47.58 99.12,142.74 0,44.83 -10.98,132.37 -32.94,262.9 -25.62,148.83 -38.74,239.42 -39.35,271.44 36.91,-35.69 91.19,-114.07 162.56,-234.84 101.26,-165.61 175.98,-270.53 223.86,-315.06 47.88,-44.22 97.6,-66.49 148.83,-66.49 38.74,0 69.54,25.92 92.41,77.77 22.87,51.85 36.91,175.37 41.48,370.87 1.22,48.8 5.79,85.09 13.42,108.88 7.93,23.79 13.42,35.69 17.08,35.69 28.06,0 88.76,-95.16 182.39,-285.78 50.02,-100.65 98.51,-177.2 146.09,-229.66 47.28,-52.46 99.73,-78.69 157.68,-78.69 48.19,0 83.26,25.01 105.22,74.72 22.26,49.71 37.82,123.22 47.57,221.12 8.85,98.82 22.57,189.4 41.48,271.44 18.61,82.35 53.07,135.11 103.09,158.29 34.16,16.17 50.93,34.77 50.93,56.43 0,20.74 -14.33,42.09 -42.7,64.05 -28.67,22.26 -54.9,33.24 -78.69,33.24 -47.88,0 -90.28,-29.28 -127.79,-87.53 -37.51,-58.56 -65.88,-184.83 -84.79,-378.8 -8.54,-78.08 -16.47,-133.59 -24.4,-166.22 -7.63,-32.94 -19.83,-49.41 -36.6,-49.41 -25.01,0 -54.59,24.09 -88.76,71.67 -34.46,47.58 -89.67,144.57 -165.91,290.35 -59.47,113.76 -104.61,189.7 -135.42,227.52 -30.5,37.82 -60.08,56.73 -88.75,56.73 -25.62,0 -48.49,-10.37 -68.93,-30.8 -20.13,-20.74 -32.94,-45.44 -38.43,-74.42 -5.19,-28.67 -10.98,-99.73 -16.77,-212.89 -9.15,-188.18 -25.31,-297.98 -49.11,-328.78zm1970.85 403.81c0,60.7 -53.68,133.89 -161.04,219.9 -107.66,85.7 -218.68,128.4 -333.05,128.4 -95.76,0 -169.88,-28.06 -222.03,-84.79 -52.15,-56.43 -78.08,-135.42 -78.08,-236.67 0,-170.49 57.34,-332.44 172.32,-486.16 114.98,-153.72 240.94,-230.57 377.28,-230.57 44.53,0 81.13,14.64 109.49,43.92 28.06,28.97 42.39,64.35 42.39,105.22 0,91.8 -45.14,179.64 -135.11,263.82 -89.97,83.87 -210.14,166.52 -360.81,247.35 -31.11,16.17 -46.36,36.91 -46.36,62.52 0,49.41 14.03,89.06 42.7,118.94 28.67,29.89 71.06,44.53 126.87,44.53 128.1,0 258.94,-70.76 392.22,-212.58 19.82,-19.52 34.77,-29.59 44.83,-29.59 18.91,0 28.36,15.25 28.36,45.75zm-620.96 -139.38c252.84,-150.06 379.1,-270.83 379.1,-362.03 0,-35.68 -16.16,-53.68 -48.49,-53.68 -54.59,0 -116.51,40.26 -185.44,120.78 -68.62,80.52 -117.11,178.72 -145.17,294.93zm557.52 -904.3c-2.44,1.22 -5.49,3.05 -8.85,5.49 -4.27,2.13 -9.45,4.88 -16.16,7.93 -39.96,18.3 -122.61,75.64 -248.26,171.41 -51.85,39.95 -91.19,68.62 -118.03,86.01l-20.74 12.5c-15.25,0 -28.97,-7.63 -40.87,-22.57 -11.89,-14.64 -17.99,-29.89 -17.99,-45.44 0,-30.5 45.75,-80.21 137.24,-149.14 91.5,-69.23 173.54,-123.83 246.13,-164.39 27.45,-15.56 47.88,-28.98 61.61,-40.26 10.07,-8.24 15.56,-11.59 16.17,-9.76 10.06,0 21.96,10.98 35.38,32.94 13.42,21.96 19.83,39.04 19.83,50.93 0,7.32 -5.49,18.6 -16.78,33.85 -11.28,15.56 -21.04,25.62 -28.67,30.5zm430.65 991.83c6.1,-10.67 13.11,-25.62 21.65,-44.83 40.56,-92.72 77.77,-165.61 111.63,-218.37 33.85,-52.76 71.37,-103.09 112.24,-151.28 40.56,-48.49 78.07,-85.09 111.63,-110.1 33.55,-25.01 64.05,-42.39 91.5,-52.15 27.45,-9.76 53.98,-14.94 79.6,-14.94 51.85,0 93.94,15.86 126.88,46.97 32.63,31.42 49.1,67.71 49.1,109.49 0,18.61 -5.8,35.07 -17.38,50.02 -11.59,14.94 -29.28,22.26 -53.07,22.26 -25.01,0 -48.19,-10.98 -68.93,-32.94 -21.35,-21.96 -43.92,-32.94 -67.1,-32.94 -61.91,0 -147.61,75.03 -257.11,225.08 -109.8,150.06 -176.59,315.36 -200.38,495.92 -5.8,46.36 -17.08,77.16 -33.85,92.11 -16.78,14.64 -40.26,22.27 -70.45,22.27 -29.28,0 -50.32,-21.66 -63.44,-65.27 -13.11,-43.61 -19.82,-116.81 -19.82,-219.9 0,-27.75 1.52,-89.67 4.57,-184.82 3.35,-112.54 10.67,-203.43 21.35,-272.67 1.83,-11.28 4.88,-37.82 8.84,-79.3 4.27,-46.06 9.46,-77.78 15.86,-95.77 6.1,-17.69 18.91,-34.46 38.43,-50.02 19.21,-15.56 40.26,-23.18 62.83,-23.18 21.96,0 38.73,7.01 49.71,21.04 10.98,14.03 16.47,28.97 16.47,45.14 0,23.18 -6.1,55.81 -17.99,98.21 -13.72,46.97 -21.65,79.6 -24.09,97.29 -1.83,20.43 -4.88,41.48 -9.76,63.44 -6.1,25.62 -11.89,93.02 -18,201.91l-0.91 33.24 0 24.09z"/>
  <path class="fil7 str7" d="M12841.13 15432.48l237.31 0 0 121.41 -93.82 0 0 478.57 93.82 0 0 121.41 -237.31 0 0 -721.39zm313.13 0l431.26 0 0 121.41 -256.23 0 0 98.55 219.18 0 0 114.32 -219.18 0 0 230.22 -175.03 0 0 -564.5zm526.52 0l156.89 0 0 564.5 -156.89 0 0 -564.5zm238.1 361.09c0,-62.55 21.02,-114.06 63.07,-154.53 42.05,-40.47 98.81,-60.71 170.3,-60.71 81.86,0 143.62,23.78 185.41,71.35 33.5,38.37 50.33,85.54 50.33,141.52 0,63.07 -20.76,114.58 -62.42,154.92 -41.65,40.21 -99.34,60.31 -172.93,60.31 -65.57,0 -118.65,-16.69 -159.13,-50.2 -49.8,-41.39 -74.64,-95.66 -74.64,-162.67zm156.89 -0.26c0,36.66 7.36,63.73 22.07,81.21 14.72,17.48 33.11,26.28 55.45,26.28 22.47,0 40.87,-8.67 55.32,-25.89 14.46,-17.22 21.68,-44.94 21.68,-83.05 0,-35.61 -7.22,-62.02 -21.81,-79.5 -14.59,-17.35 -32.59,-26.02 -54.14,-26.02 -22.73,0 -41.52,8.8 -56.37,26.41 -14.85,17.74 -22.21,44.54 -22.21,80.55zm327.98 -205.51l151.5 0 65.83 256.89 83.57 -256.89 140.33 0 86.46 257.28 65.96 -257.28 150.59 0 -150.45 409.19 -139.29 0 -82.78 -246.25 -80.02 246.25 -140.07 0 -151.63 -409.19zm799.31 -155.31l290.14 0c63.2,0 110.51,14.98 142.04,45.07 31.41,30.09 47.17,72.93 47.17,128.51 0,57.03 -17.21,101.7 -51.51,133.77 -34.3,32.19 -86.72,48.22 -157.16,48.22l-95.66 0 0 208.93 -175.03 0 0 -564.5zm175.03 241.25l42.97 0c33.9,0 57.69,-5.91 71.35,-17.61 13.67,-11.7 20.5,-26.68 20.5,-44.94 0,-17.74 -5.91,-32.72 -17.87,-45.07 -11.83,-12.35 -34.17,-18.53 -67.02,-18.53l-49.93 0 0 126.15zm818.63 157.68l-314.57 0c2.89,25.1 9.59,43.89 20.5,56.24 15.11,17.74 34.95,26.54 59.39,26.54 15.51,0 30.22,-3.81 44.02,-11.43 8.54,-4.86 17.74,-13.4 27.46,-25.62l154.53 14.19c-23.65,41 -52.17,70.56 -85.54,88.3 -33.37,17.87 -81.34,26.81 -143.75,26.81 -54.27,0 -96.84,-7.62 -127.98,-23 -31.01,-15.24 -56.77,-39.55 -77.26,-72.8 -20.37,-33.38 -30.62,-72.54 -30.62,-117.47 0,-63.99 20.5,-115.9 61.5,-155.45 40.87,-39.55 97.5,-59.39 169.64,-59.39 58.61,0 104.73,8.94 138.63,26.67 33.9,17.74 59.79,43.36 77.53,77.13 17.74,33.64 26.54,77.53 26.54,131.53l0 17.74zm-159.26 -74.9c-3.02,-30.48 -11.3,-52.3 -24.57,-65.44 -13.27,-13.14 -30.62,-19.71 -52.3,-19.71 -24.96,0 -44.94,9.99 -59.92,29.83 -9.46,12.35 -15.51,30.75 -18.13,55.32l154.92 0zm232.58 -168.72l146.91 0 0 66.75c14.19,-29.04 28.78,-49.01 43.76,-59.92 15.11,-10.91 33.64,-16.3 55.72,-16.3 23.26,0 48.62,7.23 76.08,21.68l-48.62 111.3c-18.53,-7.76 -33.24,-11.57 -44.02,-11.57 -20.5,0 -36.53,8.54 -47.83,25.49 -16.17,23.92 -24.31,68.72 -24.31,134.3l0 137.44 -157.68 0 0 -409.19zm522.58 0l74.9 0 0 115.11 -74.9 0 0 294.07 -156.89 0 0 -294.07 -58.34 0 0 -115.11 58.34 0 0 -18.4c0,-16.69 1.84,-34.95 5.39,-54.93 3.55,-19.97 10.25,-36.4 20.24,-49.01 9.86,-12.61 23.65,-22.86 41.52,-30.75 17.74,-7.75 43.89,-11.69 78.19,-11.69 27.46,0 67.28,3.15 119.57,9.59l-17.08 94.35c-18.79,-3.02 -33.9,-4.6 -45.46,-4.6 -14.19,0 -24.31,2.37 -30.48,7.09 -6.18,4.73 -10.51,12.22 -13.01,22.6 -1.31,5.52 -1.97,17.48 -1.97,35.74zm100.13 205.78c0,-62.55 21.02,-114.06 63.07,-154.53 42.05,-40.47 98.81,-60.71 170.3,-60.71 81.86,0 143.62,23.78 185.41,71.35 33.5,38.37 50.33,85.54 50.33,141.52 0,63.07 -20.76,114.58 -62.42,154.92 -41.65,40.21 -99.34,60.31 -172.93,60.31 -65.57,0 -118.65,-16.69 -159.13,-50.2 -49.8,-41.39 -74.64,-95.66 -74.64,-162.67zm156.89 -0.26c0,36.66 7.36,63.73 22.07,81.21 14.72,17.48 33.11,26.28 55.45,26.28 22.47,0 40.87,-8.67 55.32,-25.89 14.46,-17.22 21.68,-44.94 21.68,-83.05 0,-35.61 -7.22,-62.02 -21.81,-79.5 -14.59,-17.35 -32.59,-26.02 -54.14,-26.02 -22.73,0 -41.52,8.8 -56.37,26.41 -14.85,17.74 -22.21,44.54 -22.21,80.55zm389.48 -205.51l146.91 0 0 66.75c14.19,-29.04 28.78,-49.01 43.76,-59.92 15.11,-10.91 33.64,-16.3 55.72,-16.3 23.26,0 48.62,7.23 76.08,21.68l-48.62 111.3c-18.53,-7.76 -33.24,-11.57 -44.02,-11.57 -20.5,0 -36.53,8.54 -47.83,25.49 -16.17,23.92 -24.31,68.72 -24.31,134.3l0 137.44 -157.68 0 0 -409.19zm389.21 0l146.12 0 0 59.52c21.02,-24.96 42.31,-42.7 63.73,-53.22 21.42,-10.51 47.31,-15.77 77.66,-15.77 32.59,0 58.34,5.78 77.39,17.35 19.06,11.56 34.56,28.78 46.65,51.64 24.57,-26.67 46.91,-44.94 67.15,-54.53 20.24,-9.59 45.2,-14.45 74.9,-14.45 43.76,0 77.92,13.01 102.49,39.16 24.57,26.02 36.93,66.88 36.93,122.33l0 257.15 -156.89 0 0 -233.76c0,-18.66 -3.55,-32.46 -10.78,-41.39 -10.38,-14.19 -23.52,-21.29 -39.03,-21.29 -18.39,0 -33.24,6.7 -44.54,20.1 -11.17,13.41 -16.82,34.95 -16.82,64.52l0 211.82 -156.89 0 0 -225.48c0,-18 -1.05,-30.22 -3.15,-36.66 -3.29,-10.25 -9.07,-18.53 -17.35,-24.83 -8.15,-6.31 -17.87,-9.46 -28.91,-9.46 -18,0 -32.85,6.83 -44.42,20.37 -11.56,13.67 -17.34,36 -17.34,67.15l0 208.93 -156.89 0 0 -409.19zm994.19 -155.31l-237.31 0 0 121.41 93.82 0 0 478.57 -93.82 0 0 121.41 237.31 0 0 -721.39z"/>
  <path class="fil8 str6" d="M12823.3 12954.04c-54.19,60.36 -138.13,168.17 -251.83,323.15 -113.42,154.69 -193.16,254.36 -239.2,298.72 -46.04,44.36 -83.94,66.54 -113.42,66.54 -22.74,0 -44.64,-16.85 -65.98,-50.54 -21.34,-33.69 -49.13,-101.91 -83.1,-204.39 -70.19,-208.88 -114.27,-329.32 -132.23,-361.05 -6.74,18.53 -14.04,49.13 -22.18,91.24 -17.69,88.72 -40.99,197.09 -69.91,324.83 -56.71,245.09 -88.72,407.37 -96.3,487.1 -1.12,9.82 -10.11,20.49 -26.67,32 -16.85,11.51 -30.32,17.13 -40.99,17.13 -19.65,0 -37.9,-9.83 -54.46,-29.48 -16.85,-19.65 -25.27,-39.02 -25.27,-57.55 0,-48.29 16,-132.52 47.73,-252.68l71.59 -269.8c43.8,-169.85 71.03,-294.79 81.42,-375.08 10.39,-80.01 15.72,-142.9 15.72,-188.94 0,-47.73 37.62,-71.59 112.58,-71.59 16,0 32.57,13.76 50.26,41.55 17.41,27.52 28.92,51.94 34.53,72.72 7.02,20.78 15.72,44.07 25.55,69.91l110.06 308.54c43.52,126.06 70.19,197.09 80.3,213.37 10.11,16 18.53,24.15 24.99,24.15 28.07,-5.89 126.9,-126.34 297.03,-361.04 189.23,-260.54 297.31,-390.53 323.99,-390.53 21.9,0 46.32,8.43 72.99,25.83 26.39,17.13 39.87,32.29 39.87,44.64 0,5.62 -16,126.06 -47.73,361.33 -11.51,87.04 -22.18,191.75 -32.29,313.6 -9.83,122.13 -14.6,190.91 -14.6,206.07 0,28.07 4.77,59.24 14.6,93.77 8.98,30.88 13.2,55.31 13.2,74.12 0,14.88 -2.81,36.22 -8.14,64.57 -5.62,28.07 -17.41,44.64 -35.66,49.69 -18.53,5.05 -33.13,7.3 -44.08,7.3 -57.55,0 -86.47,-47.73 -86.47,-143.74 0,-87.88 19.09,-302.37 56.71,-644.04 2.81,-27.52 4.21,-44.36 4.21,-51.1 0,-4.21 3.37,-22.74 9.83,-55.03 5.06,-27.51 7.58,-50.53 7.58,-69.06 0,-18.25 -1.4,-30.32 -4.21,-36.22zm631.69 1010.7c-74.96,0 -137.01,-28.35 -185.86,-85.35 -48.85,-56.99 -73.28,-127.46 -73.28,-211.41 0,-141.5 47.73,-281.03 142.9,-418.32 94.89,-137.29 208.88,-206.07 341.67,-206.07 87.59,0 158.91,33.69 213.37,101.35 54.47,67.38 81.98,147.68 81.98,240.89 0,142.62 -56.43,274.57 -169.01,396.42 -112.86,121.85 -229.93,182.49 -351.78,182.49zm-114.27 -318.09c0,55.31 11.51,100.51 34.81,135.6 23.3,35.09 54.19,52.78 92.65,52.78 81.7,0 163.68,-44.92 245.94,-134.48 82.26,-89.84 123.25,-189.51 123.25,-299 0,-67.66 -15.72,-122.13 -47.17,-164.24 -31.44,-41.83 -73.84,-62.89 -127.18,-62.89 -88.16,0 -163.96,54.19 -227.41,162.56 -63.17,108.09 -94.89,211.41 -94.89,309.67zm1386.91 -355.43c-28.64,0 -59.8,18.53 -93.49,55.87 -33.69,37.34 -85.07,121 -154.13,250.99 -90.96,174.35 -149.92,273.45 -176.31,297.59 -26.67,24.15 -48.85,36.22 -66.26,36.22 -64.85,0 -97.14,-31.16 -97.14,-93.77 0,-26.11 4.49,-63.45 13.2,-111.74 30.04,-165.65 45.2,-340.27 45.2,-523.88 0,-21.06 8.98,-44.08 26.67,-69.63 17.97,-25.55 34.81,-38.18 50.54,-38.18 28.64,0 48.85,8.7 60.92,26.39 12.07,17.41 18.25,52.78 18.25,106.12 0,55.31 -16.57,169.3 -49.41,341.96 -10.95,56.99 -16.56,93.21 -16.56,108.65 0,8.7 2.24,13.19 6.74,13.19 8.14,0 46.32,-65.69 114.27,-196.52 68.5,-133.36 128.58,-227.13 179.96,-281.31 51.66,-54.47 108.37,-81.42 170.41,-81.42 49.41,0 89.56,22.46 120.44,67.38 30.88,44.92 53.62,126.9 67.94,245.94 15.44,135.32 29.2,219.83 41.55,252.96 12.35,33.13 32,49.69 58.68,49.69 17.13,0 38.46,-5.89 64.29,-17.97 4.21,-2.24 7.58,-3.37 9.83,-3.37 23.58,0 35.37,13.76 35.37,40.99 0,24.15 -16.28,49.97 -48.57,76.93 -32.29,27.23 -71.31,40.71 -116.79,40.71 -46.61,0 -82.54,-18.53 -108.09,-55.31 -25.55,-37.06 -45.76,-135.88 -60.64,-296.75 -15.16,-161.15 -47.44,-241.73 -96.86,-241.73zm821.76 -468.85c-11.51,0 -20.21,-12.35 -26.39,-37.06 -2.25,-7.58 -5.06,-16 -8.98,-25.55 -14.88,-35.37 -22.18,-66.54 -22.18,-92.93 0,-21.9 12.92,-44.08 39.03,-66.82 26.11,-22.74 55.03,-34.25 86.75,-34.25 16,0 33.69,6.18 53.62,18.53 19.65,12.35 29.48,24.15 29.48,35.65 0,18.25 -6.74,48.85 -20.22,92.37 -13.48,43.24 -34.81,72.44 -64.01,87.59 -29.48,14.88 -51.66,22.46 -67.1,22.46zm-107.81 918.9c0,41.55 5.89,88.44 17.41,140.66 2.25,9.83 3.09,17.97 3.09,24.43 0,10.11 -8.98,22.74 -26.95,38.46 -18.25,15.44 -37.34,23.3 -57.56,23.3 -53.34,0 -79.73,-48.85 -79.73,-146.27 0,-101.07 20.78,-260.54 62.33,-478.68 14.32,-76.37 21.33,-123.25 21.33,-140.66 0,-34.53 6.46,-64.01 19.09,-88.44 12.63,-24.43 30.32,-36.78 53.34,-36.78 28.08,0 49.98,6.74 66.26,20.22 16.28,13.48 24.15,28.35 24.15,44.92 0,16.28 -3.65,38.19 -11.51,64.85 -40.99,144.87 -66.54,248.46 -76.37,311.07 -9.83,62.33 -14.88,136.73 -14.88,222.92zm664.54 -647.41c56.43,-4.49 109.78,-9.55 159.47,-15.72 49.41,-5.33 90.68,-8.14 123.53,-8.14 41.55,0 67.94,3.93 78.89,11.51 10.95,7.58 16.56,21.06 16.56,40.43 0,44.36 -31.16,68.5 -92.93,72.15 -79.73,5.05 -152.73,11.79 -219.83,20.78 -66.82,8.7 -102.76,16 -108.09,21.61 -5.06,5.9 -21.62,71.03 -49.69,195.69 -28.07,124.93 -42.11,205.79 -42.11,243.13 0,60.36 8.14,100.51 23.86,120.44 16,20.22 39.87,30.04 71.59,30.04 47.17,0 112.86,-35.38 196.8,-106.13 32.29,-28.92 57.28,-43.52 74.68,-43.52 23.58,0 35.37,12.63 35.37,37.9 0,39.59 -37.9,90.68 -113.98,153.29 -75.8,62.89 -153.57,94.33 -233.02,94.33 -132.8,0 -199.05,-78.33 -199.05,-234.43 0,-56.43 13.76,-144.03 40.99,-262.5 26.95,-117.91 40.43,-188.67 40.43,-212.25 0,-8.14 -6.74,-12.35 -19.65,-12.35l-85.63 7.58c-70.19,0 -105.28,-28.07 -105.28,-83.94 0,-31.72 16,-47.73 48.57,-47.73l169.29 0c11.51,0 21.62,-5.33 30.6,-15.72 8.7,-10.39 21.62,-45.2 38.46,-104.72 17.12,-59.52 32.28,-118.48 45.2,-176.59 13.19,-57.56 39.02,-86.19 77.48,-86.19 23.58,0 41.83,8.14 55.03,24.7 13.2,16.29 19.65,31.73 19.65,46.04 0,7.58 -9.83,46.89 -29.48,117.64l-47.73 172.66zm695.14 870.89c-74.96,0 -137.01,-28.35 -185.86,-85.35 -48.85,-56.99 -73.28,-127.46 -73.28,-211.41 0,-141.5 47.73,-281.03 142.9,-418.32 94.89,-137.29 208.88,-206.07 341.67,-206.07 87.59,0 158.91,33.69 213.37,101.35 54.47,67.38 81.98,147.68 81.98,240.89 0,142.62 -56.43,274.57 -169.01,396.42 -112.86,121.85 -229.93,182.49 -351.78,182.49zm-114.27 -318.09c0,55.31 11.51,100.51 34.81,135.6 23.3,35.09 54.19,52.78 92.65,52.78 81.7,0 163.68,-44.92 245.94,-134.48 82.26,-89.84 123.25,-189.51 123.25,-299 0,-67.66 -15.72,-122.13 -47.17,-164.24 -31.44,-41.83 -73.84,-62.89 -127.18,-62.89 -88.16,0 -163.96,54.19 -227.41,162.56 -63.17,108.09 -94.89,211.41 -94.89,309.67zm992.74 -49.41c5.61,-9.83 12.07,-23.58 19.93,-41.27 37.34,-85.35 71.59,-152.45 102.76,-201.02 31.16,-48.57 65.69,-94.89 103.31,-139.26 37.34,-44.64 71.87,-78.33 102.76,-101.35 30.88,-23.02 58.96,-39.02 84.22,-48.01 25.27,-8.98 49.69,-13.76 73.28,-13.76 47.73,0 86.47,14.6 116.79,43.24 30.04,28.92 45.2,62.33 45.2,100.79 0,17.13 -5.33,32.29 -16,46.04 -10.67,13.76 -26.95,20.5 -48.85,20.5 -23.02,0 -44.36,-10.11 -63.45,-30.32 -19.65,-20.21 -40.43,-30.32 -61.76,-30.32 -56.99,0 -135.89,69.06 -236.67,207.19 -101.07,138.13 -162.56,290.3 -184.45,456.5 -5.33,42.68 -15.72,71.03 -31.17,84.79 -15.44,13.48 -37.06,20.5 -64.85,20.5 -26.95,0 -46.33,-19.93 -58.4,-60.08 -12.07,-40.15 -18.25,-107.53 -18.25,-202.42 0,-25.55 1.4,-82.54 4.21,-170.13 3.09,-103.6 9.83,-187.26 19.65,-250.99 1.69,-10.39 4.49,-34.81 8.14,-72.99 3.93,-42.39 8.7,-71.59 14.6,-88.16 5.61,-16.28 17.41,-31.72 35.37,-46.04 17.69,-14.32 37.06,-21.34 57.83,-21.34 20.22,0 35.66,6.46 45.76,19.37 10.11,12.91 15.16,26.67 15.16,41.55 0,21.33 -5.61,51.38 -16.56,90.4 -12.63,43.24 -19.94,73.28 -22.18,89.56 -1.69,18.81 -4.49,38.18 -8.98,58.4 -5.61,23.58 -10.95,85.63 -16.56,185.85l-0.84 30.6 0 22.18zm1395.89 47.73c0,55.87 -49.41,123.25 -148.24,202.42 -99.11,78.89 -201.3,118.2 -306.58,118.2 -88.16,0 -156.38,-25.83 -204.39,-78.05 -48.01,-51.94 -71.87,-124.65 -71.87,-217.86 0,-156.94 52.78,-306.02 158.63,-447.52 105.84,-141.5 221.79,-212.25 347.29,-212.25 40.99,0 74.68,13.48 100.79,40.43 25.83,26.67 39.03,59.24 39.03,96.86 0,84.5 -41.55,165.36 -124.37,242.85 -82.82,77.21 -193.44,153.29 -332.13,227.69 -28.63,14.88 -42.67,33.97 -42.67,57.56 0,45.48 12.91,81.98 39.31,109.49 26.39,27.52 65.41,40.99 116.79,40.99 117.91,0 238.36,-65.13 361.04,-195.69 18.25,-17.97 32.01,-27.23 41.27,-27.23 17.41,0 26.11,14.04 26.11,42.11zm-571.61 -128.3c232.74,-138.13 348.98,-249.31 348.98,-333.25 0,-32.85 -14.88,-49.41 -44.64,-49.41 -50.25,0 -107.24,37.06 -170.7,111.18 -63.17,74.12 -107.81,164.52 -133.64,271.49zm513.21 -832.43c-2.24,1.13 -5.05,2.81 -8.14,5.06 -3.93,1.96 -8.7,4.49 -14.88,7.3 -36.78,16.85 -112.86,69.63 -228.53,157.78 -47.73,36.78 -83.94,63.17 -108.65,79.17l-19.09 11.51c-14.04,0 -26.67,-7.02 -37.62,-20.78 -10.95,-13.48 -16.56,-27.51 -16.56,-41.83 0,-28.07 42.11,-73.84 126.34,-137.29 84.22,-63.73 159.74,-113.98 226.56,-151.33 25.27,-14.31 44.08,-26.67 56.71,-37.06 9.26,-7.58 14.32,-10.67 14.88,-8.98 9.27,0 20.22,10.11 32.57,30.32 12.35,20.21 18.25,35.94 18.25,46.89 0,6.74 -5.06,17.13 -15.44,31.16 -10.39,14.32 -19.37,23.58 -26.39,28.07zm396.42 913c5.61,-9.83 12.07,-23.58 19.93,-41.27 37.34,-85.35 71.59,-152.45 102.76,-201.02 31.16,-48.57 65.69,-94.89 103.31,-139.26 37.34,-44.64 71.87,-78.33 102.76,-101.35 30.88,-23.02 58.96,-39.02 84.22,-48.01 25.27,-8.98 49.69,-13.76 73.28,-13.76 47.73,0 86.47,14.6 116.79,43.24 30.04,28.92 45.2,62.33 45.2,100.79 0,17.13 -5.33,32.29 -16,46.04 -10.67,13.76 -26.95,20.5 -48.85,20.5 -23.02,0 -44.36,-10.11 -63.45,-30.32 -19.65,-20.21 -40.43,-30.32 -61.76,-30.32 -56.99,0 -135.89,69.06 -236.67,207.19 -101.07,138.13 -162.56,290.3 -184.45,456.5 -5.33,42.68 -15.72,71.03 -31.17,84.79 -15.44,13.48 -37.06,20.5 -64.85,20.5 -26.95,0 -46.33,-19.93 -58.4,-60.08 -12.07,-40.15 -18.25,-107.53 -18.25,-202.42 0,-25.55 1.4,-82.54 4.21,-170.13 3.09,-103.6 9.83,-187.26 19.65,-250.99 1.69,-10.39 4.49,-34.81 8.14,-72.99 3.93,-42.39 8.7,-71.59 14.6,-88.16 5.61,-16.28 17.41,-31.72 35.37,-46.04 17.69,-14.32 37.06,-21.34 57.83,-21.34 20.22,0 35.66,6.46 45.76,19.37 10.11,12.91 15.16,26.67 15.16,41.55 0,21.33 -5.61,51.38 -16.56,90.4 -12.63,43.24 -19.94,73.28 -22.18,89.56 -1.69,18.81 -4.49,38.18 -8.98,58.4 -5.61,23.58 -10.95,85.63 -16.56,185.85l-0.84 30.6 0 22.18z"/>
  <g id="_2914739457232">
   <polygon class="fil9 str8" points="10878.72,17098.17 9687.43,17724.7 9662.73,16521.06 "/>
   <circle class="fil0" cx="10270.73" cy="10927.97" r="6194.91"/>
       <animateTransform attributeName="transform"
            attributeType="XML"
            type="rotate"
            from="360 10270.73 10927.97"
            to="0 10270.73 10927.97"
            dur="40s"
            repeatCount="indefinite"/>
  </g>
 </g>
</svg>
