<?xml version="1.0" encoding="utf-8"?>
<!-- Generator: Adobe Illustrator 16.0.0, SVG Export Plug-In . SVG Version: 6.00 Build 0)  -->
<!DOCTYPE svg PUBLIC "-//W3C//DTD SVG 1.1//EN" "http://www.w3.org/Graphics/SVG/1.1/DTD/svg11.dtd">
<svg version="1.1" id="Calque_1" xmlns="http://www.w3.org/2000/svg" xmlns:xlink="http://www.w3.org/1999/xlink" x="0px" y="0px"
	 width="708.662px" height="708.661px" viewBox="0 0 708.662 708.661" enable-background="new 0 0 708.662 708.661"
	 xml:space="preserve">
<circle fill="#0C93FC" cx="354.331" cy="354.331" r="325.984"/>
<g>
	<path d="M138.175,484.768v11.203h-4.094v50.436h4.094v11.203h-20.561v-72.842H138.175z"/>
	<path d="M143.619,484.768h32.079v14.577h-13.138v13.813h11.698v13.857h-11.698v30.595h-18.941V484.768z"/>
	<path d="M198.464,484.768v72.842h-18.717v-72.842H198.464z"/>
	<path d="M246.111,518.872v14.623c0,5.369-0.27,9.306-0.81,11.81c-0.54,2.505-1.695,4.845-3.464,7.02
		c-1.77,2.175-4.042,3.779-6.816,4.813c-2.775,1.035-5.961,1.553-9.561,1.553c-4.02,0-7.423-0.443-10.213-1.327
		c-2.79-0.885-4.957-2.22-6.501-4.005c-1.545-1.784-2.647-3.943-3.307-6.479c-0.66-2.534-0.99-6.336-0.99-11.405v-15.298
		c0-5.548,0.6-9.882,1.799-13.002c1.199-3.119,3.359-5.624,6.479-7.514c3.119-1.89,7.109-2.835,11.968-2.835
		c4.079,0,7.581,0.607,10.505,1.822c2.925,1.215,5.181,2.798,6.771,4.747c1.589,1.95,2.677,3.959,3.262,6.028
		C245.818,511.494,246.111,514.643,246.111,518.872z M227.934,514.373c0-3.06-0.165-4.986-0.495-5.781
		c-0.331-0.794-1.035-1.192-2.115-1.192s-1.8,0.398-2.16,1.192c-0.36,0.795-0.54,2.722-0.54,5.781v26.95
		c0,2.819,0.18,4.657,0.54,5.512s1.064,1.282,2.115,1.282c1.08,0,1.792-0.39,2.137-1.17c0.344-0.779,0.517-2.459,0.517-5.039
		V514.373z"/>
	<path d="M310.853,497.906l-7.255,59.704h-19.729c-1.074-7.294-2.33-16.907-3.768-28.84c-0.493,5.25-1.173,10.544-2.042,15.883
		l-1.996,12.957H256.29l-7.705-59.704h15.667c0.12,1.56,1.444,12.957,3.973,34.193c0.199-2.185,1.561-13.583,4.083-34.193h15.049
		l3.678,34.193c0.582-9.984,1.972-21.382,4.168-34.193H310.853z"/>
	<path d="M314.318,484.768h14.172c9.148,0,15.335,0.421,18.56,1.26c3.223,0.84,5.676,2.221,7.355,4.14
		c1.68,1.92,2.729,4.057,3.15,6.411c0.42,2.355,0.629,6.981,0.629,13.88v25.511c0,6.539-0.309,10.91-0.922,13.114
		c-0.615,2.205-1.688,3.931-3.217,5.175c-1.529,1.245-3.42,2.114-5.67,2.609c-2.248,0.495-5.639,0.742-10.167,0.742h-23.891V484.768
		z M333.259,497.231v47.916c2.729,0,4.409-0.547,5.039-1.642c0.63-1.095,0.945-4.072,0.945-8.932v-28.3
		c0-3.299-0.105-5.413-0.314-6.344c-0.21-0.929-0.691-1.611-1.44-2.047C336.739,497.449,335.329,497.231,333.259,497.231z"/>
	<path d="M405.877,528.815h-23.531v12.913c0,2.699,0.195,4.439,0.585,5.219c0.39,0.78,1.14,1.17,2.25,1.17
		c1.379,0,2.302-0.518,2.767-1.553c0.465-1.034,0.697-3.036,0.697-6.006v-7.874h17.232v4.409c0,3.689-0.233,6.524-0.698,8.504
		s-1.552,4.094-3.262,6.344c-1.709,2.25-3.877,3.937-6.501,5.062c-2.625,1.125-5.916,1.688-9.876,1.688
		c-3.84,0-7.229-0.556-10.168-1.665s-5.227-2.632-6.861-4.566s-2.767-4.064-3.396-6.389s-0.945-5.707-0.945-10.146v-17.412
		c0-5.219,0.705-9.336,2.115-12.351c1.409-3.015,3.719-5.323,6.929-6.929c3.209-1.604,6.898-2.407,11.067-2.407
		c5.099,0,9.306,0.968,12.62,2.902s5.639,4.499,6.974,7.693s2.003,7.687,2.003,13.476V528.815z M387.655,519.097v-4.364
		c0-3.089-0.166-5.084-0.495-5.984c-0.33-0.899-1.006-1.35-2.024-1.35c-1.26,0-2.04,0.383-2.34,1.147s-0.45,2.827-0.45,6.187v4.364
		H387.655z"/>
	<path d="M448.933,516.982h-16.106v-3.239c0-2.759-0.158-4.506-0.473-5.241c-0.315-0.734-1.103-1.103-2.362-1.103
		c-1.02,0-1.785,0.338-2.295,1.013s-0.765,1.687-0.765,3.037c0,1.829,0.127,3.172,0.383,4.026c0.254,0.854,1.02,1.793,2.294,2.812
		c1.275,1.021,3.893,2.505,7.852,4.455c5.278,2.579,8.743,5.009,10.393,7.288c1.649,2.28,2.475,5.595,2.475,9.943
		c0,4.859-0.63,8.526-1.89,11c-1.26,2.475-3.367,4.38-6.321,5.715c-2.954,1.334-6.517,2.002-10.686,2.002
		c-4.619,0-8.57-0.72-11.855-2.16c-3.284-1.439-5.541-3.389-6.771-5.849c-1.23-2.459-1.845-6.179-1.845-11.158v-2.879h16.106v3.779
		c0,3.21,0.203,5.294,0.607,6.254c0.405,0.96,1.207,1.439,2.407,1.439c1.289,0,2.189-0.322,2.699-0.968
		c0.51-0.645,0.766-2.002,0.766-4.071c0-2.85-0.331-4.634-0.99-5.354c-0.69-0.72-4.214-2.849-10.573-6.389
		c-5.339-2.999-8.593-5.721-9.763-8.166c-1.17-2.444-1.755-5.346-1.755-8.706c0-4.769,0.63-8.285,1.89-10.55
		s3.396-4.012,6.411-5.242c3.015-1.229,6.517-1.845,10.506-1.845c3.959,0,7.326,0.503,10.101,1.508s4.904,2.332,6.389,3.981
		c1.484,1.65,2.385,3.18,2.699,4.589c0.315,1.41,0.473,3.615,0.473,6.614V516.982z"/>
	<path d="M473.904,484.768v9.493h-18.717v-9.493H473.904z M473.904,497.906v59.704h-18.717v-59.704H473.904z"/>
	<path d="M521.73,497.906v45.981c0,6.209-0.143,10.221-0.428,12.035s-1.298,3.734-3.037,5.759c-1.739,2.025-4.161,3.569-7.266,4.635
		c-3.104,1.064-7.012,1.597-11.721,1.597c-5.789,0-10.438-0.982-13.947-2.946c-3.51-1.965-5.324-5.827-5.444-11.586h17.637
		c0,2.64,0.96,3.96,2.88,3.96c1.379,0,2.295-0.405,2.744-1.217c0.45-0.811,0.675-2.507,0.675-5.089v-4.504
		c-1.56,1.414-3.202,2.481-4.926,3.203c-1.726,0.722-3.532,1.082-5.422,1.082c-3.27,0-5.962-0.659-8.076-1.979
		c-2.114-1.319-3.563-3.052-4.342-5.196c-0.78-2.145-1.17-5.196-1.17-9.156v-21.686c0-5.669,1.02-9.748,3.06-12.238
		c2.039-2.489,5.144-3.734,9.313-3.734c2.279,0,4.356,0.467,6.231,1.397c1.874,0.933,3.547,2.33,5.017,4.193l1.305-4.511H521.73z
		 M503.509,513.743c0-2.729-0.157-4.469-0.473-5.219c-0.314-0.749-1.013-1.125-2.092-1.125c-1.051,0-1.793,0.428-2.228,1.282
		c-0.435,0.855-0.652,2.542-0.652,5.062v20.066c0,2.67,0.165,4.402,0.495,5.196c0.33,0.796,1.02,1.192,2.069,1.192
		c1.199,0,1.979-0.479,2.34-1.439s0.54-3.134,0.54-6.523V513.743z"/>
	<path d="M546.701,497.906l-0.315,5.5c1.319-2.193,2.932-3.838,4.837-4.935c1.904-1.097,4.101-1.646,6.591-1.646
		c3.119,0,5.669,0.735,7.648,2.205c1.98,1.47,3.255,3.322,3.824,5.557c0.57,2.234,0.855,5.961,0.855,11.18v41.843h-18.177v-41.348
		c0-4.108-0.135-6.613-0.405-7.514c-0.27-0.899-1.02-1.35-2.249-1.35c-1.29,0-2.101,0.518-2.43,1.553
		c-0.331,1.034-0.495,3.802-0.495,8.301v40.357h-18.177v-59.704H546.701z"/>
	<path d="M574.775,557.61v-11.203h4.094v-50.436h-4.094v-11.203h20.561v72.842H574.775z"/>
</g>
<g>
	<path d="M336.258,167.615c3.358,0,6.075,2.727,6.075,6.086c0,3.357-2.717,6.082-6.075,6.082c-3.366,0-6.084-2.725-6.084-6.082
		C330.174,170.342,332.891,167.615,336.258,167.615z"/>
	<path d="M380.116,167.615c3.365,0,6.069,2.727,6.069,6.086c0,3.357-2.704,6.082-6.069,6.082c-3.363,0-6.084-2.725-6.084-6.082
		C374.032,170.342,376.753,167.615,380.116,167.615z"/>
	<path d="M401.087,221.313c0,0,17.704-76.084,0-76.084h-17.978c-2.475-3.357-9.838-5.975-19.165-6.831l-5.113-0.28
		c-0.252,0-0.453,0-0.676,0c-0.224,0-0.411,0-0.591,0c-1.726-5.45-8.011-21.782-22.063-25.802c-1.279-2.883-4.177-4.947-7.586-4.947
		c-4.624,0-8.334,3.752-8.334,8.349c0,4.581,3.71,8.348,8.321,8.348c3.875,0,7.133-2.688,8.045-6.285
		c9.545,3.962,14.535,15.39,16.433,20.646c-9.307,0.827-16.741,3.508-19.2,6.853h-17.928c-17.734,0,0,76.032,0,76.032H401.087z
		 M380.116,160.282c7.436,0,13.434,6.027,13.434,13.434s-5.998,13.462-13.434,13.462c-7.421,0-13.447-6.042-13.447-13.462
		C366.669,166.294,372.695,160.282,380.116,160.282z M358.155,198.037h15.805v9.951h-31.611v-9.951H358.155z M336.228,160.282
		c7.466,0,13.484,6.027,13.484,13.434s-6.019,13.462-13.484,13.462c-7.428,0-13.375-6.042-13.375-13.462
		C322.853,166.294,328.801,160.282,336.228,160.282z"/>
	<g>
		<path d="M285.933,273.234c0.541-8.723,3.754-16.691,6.875-21.567l-7.617-21.854c-10.16,8.234-19.717,27.852-19.673,45.858
			c1.782-1.646,3.89-2.969,6.226-3.739C276.678,270.199,281.72,270.846,285.933,273.234z"/>
		<path d="M288.018,284.588c-1.689-5.955-7.888-9.426-13.857-7.724c-5.947,1.698-9.392,7.911-7.702,13.866
			c1.165,4.098,4.523,6.846,8.376,7.724l-2.336-11.766h15.699C288.127,285.983,288.213,285.293,288.018,284.588z"/>
	</g>
	<g>
		<path d="M431.218,273.234c-0.547-8.723-3.754-16.691-6.875-21.567l7.609-21.854c10.167,8.234,19.73,27.852,19.674,45.858
			c-1.784-1.646-3.883-2.969-6.228-3.739C440.466,270.199,435.445,270.846,431.218,273.234z"/>
		<path d="M429.131,284.588c1.698-5.955,7.912-9.426,13.866-7.724c5.954,1.698,9.404,7.911,7.709,13.866
			c-1.165,4.098-4.517,6.846-8.385,7.724l2.343-11.766h-15.705C429.047,285.983,428.93,285.293,429.131,284.588z"/>
	</g>
	<path d="M473.141,316.101h-40.357l5.524-25.184h-23.3l4.544-41.234l1.409-20.417l-36.041-0.042l-53.115,0.042h-36.064l1.323,20.417
		l4.61,41.234h-22.797l5.02,25.184h-36.436l-41.631,144.729h305.281L473.141,316.101z M426.37,300.525l-17.518,79.864H306.551
		l-15.964-79.864H426.37z M254.695,325.708h31.131l12.828,64.276H416.59l14.081-64.276h35.049l32.922,125.517H218.58
		L254.695,325.708z"/>
	<path d="M349.626,360.958c3.388-0.129,4.682-2.187,8.809-2.187c4.121,0,5.271,2.187,8.896,2.131c3.653-0.06,5.97-3.323,8.241-6.589
		c2.561-3.797,3.652-7.464,3.712-7.652c-0.085-0.027-7.136-2.731-7.221-10.888c-0.057-6.801,5.552-10.066,5.809-10.224
		c-3.147-4.632-8.066-5.264-9.836-5.335c-4.165-0.419-8.169,2.458-10.277,2.458c-2.134,0-5.406-2.403-8.879-2.345
		c-4.567,0.071-8.781,2.661-11.14,6.745c-4.724,8.227-1.186,20.422,3.425,27.083C343.412,357.42,346.095,361.104,349.626,360.958z"
		/>
	<path d="M368.078,307.197c-2.727,0.116-5.99,1.814-7.917,4.072c-1.738,1.999-3.273,5.22-2.862,8.327
		c3.021,0.231,6.099-1.524,7.983-3.825C367.167,313.498,368.409,310.348,368.078,307.197z"/>
</g>
</svg>
