<?xml version="1.0" encoding="utf-8"?>
<!-- Generator: Adobe Illustrator 16.0.0, SVG Export Plug-In . SVG Version: 6.00 Build 0)  -->
<!DOCTYPE svg PUBLIC "-//W3C//DTD SVG 1.1//EN" "http://www.w3.org/Graphics/SVG/1.1/DTD/svg11.dtd">
<svg version="1.1" id="Calque_1" xmlns="http://www.w3.org/2000/svg" xmlns:xlink="http://www.w3.org/1999/xlink" x="0px" y="0px"
	 width="708.662px" height="708.661px" viewBox="0 0 708.662 708.661" enable-background="new 0 0 708.662 708.661"
	 xml:space="preserve">
<circle fill="#F74747" cx="354.331" cy="354.331" r="325.984"/>
<path d="M144.334,477.825v11.986h-4.323v53.742h4.323v11.986h-21.812v-77.713h21.812V477.825z M150.245,477.825h34.19v15.523
	h-13.951v14.836h12.379v14.738h-12.379v32.617h-20.239v-77.713V477.825z M208.702,477.825v77.715h-19.943v-77.715H208.702z
	 M259.497,514.227v15.604c0,5.732-0.295,9.924-0.868,12.609c-0.572,2.67-1.801,5.158-3.684,7.482
	c-1.883,2.326-4.307,4.029-7.271,5.143c-2.965,1.098-6.354,1.654-10.186,1.654c-4.29,0-7.925-0.475-10.889-1.408
	c-2.98-0.951-5.29-2.375-6.927-4.275c-1.654-1.916-2.833-4.225-3.537-6.926s-1.049-6.764-1.049-12.166v-16.326
	c0-5.928,0.639-10.545,1.916-13.885c1.277-3.324,3.586-5.994,6.91-8.008c3.324-2.016,7.581-3.029,12.756-3.029
	c4.34,0,8.073,0.656,11.2,1.949c3.111,1.293,5.519,2.979,7.222,5.059c1.688,2.08,2.85,4.227,3.472,6.436
	C259.185,506.35,259.496,509.708,259.497,514.227L259.497,514.227z M240.142,509.428c0-3.26-0.18-5.322-0.524-6.156
	c-0.359-0.852-1.113-1.277-2.275-1.277c-1.163,0-1.933,0.426-2.326,1.277c-0.376,0.834-0.573,2.898-0.573,6.156v28.736
	c0,3.014,0.197,4.979,0.573,5.879c0.394,0.918,1.146,1.377,2.276,1.377c1.163,0,1.916-0.41,2.292-1.246
	c0.377-0.834,0.557-2.619,0.557-5.369L240.142,509.428L240.142,509.428z M328.484,491.874l-7.68,63.666h-21.075
	c-1.08-7.779-2.423-18.045-4.012-30.801c-0.605,5.615-1.375,11.266-2.325,16.947l-2.063,13.854h-20.976l-8.187-63.666h16.587
	c0.196,1.672,1.621,13.838,4.291,36.516c0.278-2.357,1.702-14.541,4.306-36.516h16.063l3.995,36.516
	c0.639-10.676,2.113-22.859,4.422-36.516H328.484z M332.266,477.825h14.295c9.53,0,15.982,0.361,19.355,1.098
	c3.373,0.738,6.124,2.621,8.252,5.648c2.13,3.014,3.193,7.844,3.193,14.459c0,6.043-0.753,10.104-2.26,12.184
	c-1.49,2.078-4.454,3.324-8.875,3.732c3.995,1,6.697,2.326,8.073,3.996c1.376,1.654,2.227,3.193,2.554,4.584
	c0.345,1.393,0.508,5.225,0.508,11.496v20.516h-18.765v-25.855c0-4.158-0.328-6.73-0.982-7.729c-0.639-0.998-2.342-1.49-5.109-1.49
	v35.074h-20.239V477.825L332.266,477.825z M352.506,491.088v17.291c2.26,0,3.832-0.311,4.732-0.934
	c0.901-0.621,1.359-2.652,1.359-6.074v-4.273c0-2.473-0.442-4.094-1.311-4.863C356.42,491.465,354.815,491.088,352.506,491.088
	L352.506,491.088z M428.402,514.225v15.605c0,5.73-0.294,9.924-0.867,12.609c-0.573,2.668-1.802,5.158-3.685,7.482
	c-1.883,2.326-4.306,4.029-7.271,5.141c-2.964,1.098-6.354,1.654-10.185,1.654c-4.29,0-7.926-0.475-10.89-1.408
	c-2.98-0.949-5.289-2.375-6.927-4.273c-1.653-1.916-2.833-4.225-3.537-6.926c-0.704-2.703-1.048-6.764-1.048-12.168v-16.324
	c0-5.928,0.639-10.545,1.916-13.887c1.276-3.324,3.586-5.992,6.909-8.006c3.324-2.016,7.582-3.029,12.757-3.029
	c4.339,0,8.072,0.654,11.2,1.947c3.111,1.295,5.518,2.98,7.222,5.061c1.687,2.08,2.849,4.225,3.471,6.436
	C428.092,506.35,428.402,509.706,428.402,514.225L428.402,514.225z M409.048,509.428c0-3.26-0.18-5.322-0.523-6.158
	c-0.36-0.85-1.113-1.277-2.276-1.277c-1.162,0-1.933,0.426-2.325,1.277c-0.377,0.836-0.573,2.898-0.573,6.158v28.736
	c0,3.014,0.196,4.979,0.573,5.879c0.393,0.918,1.146,1.375,2.275,1.375c1.163,0,1.916-0.408,2.293-1.244
	c0.376-0.836,0.557-2.619,0.557-5.371V509.428L409.048,509.428z M454.161,477.825v18.42c1.604-1.865,3.389-3.258,5.37-4.176
	c1.965-0.916,4.109-1.375,6.419-1.375c2.652,0,4.961,0.41,6.926,1.244c1.948,0.836,3.439,1.998,4.471,3.504
	c1.032,1.508,1.638,2.98,1.851,4.422s0.311,4.52,0.311,9.219v28.723c0,4.666-0.311,8.154-0.933,10.43
	c-0.639,2.293-2.096,4.273-4.405,5.961c-2.325,1.688-5.06,2.521-8.236,2.521c-2.276,0-4.405-0.508-6.386-1.506
	c-1.965-1-3.783-2.49-5.42-4.486l-1.244,4.813h-18.078v-77.713H454.161z M460.154,509.952c0-3.291-0.214-5.436-0.639-6.451
	c-0.41-1-1.244-1.508-2.473-1.508c-1.212,0-1.981,0.443-2.342,1.326c-0.359,0.869-0.54,3.096-0.54,6.633v27.459
	c0,3.424,0.197,5.617,0.605,6.566c0.41,0.967,1.212,1.443,2.424,1.443c1.229,0,2.03-0.492,2.407-1.492
	c0.376-0.982,0.557-3.373,0.557-7.139V509.952L460.154,509.952z M529.664,514.225v15.605c0,5.73-0.294,9.924-0.867,12.609
	c-0.573,2.668-1.802,5.158-3.685,7.482c-1.883,2.326-4.307,4.029-7.271,5.141c-2.964,1.098-6.354,1.654-10.186,1.654
	c-4.289,0-7.925-0.475-10.889-1.408c-2.98-0.949-5.289-2.375-6.927-4.273c-1.653-1.916-2.833-4.225-3.537-6.926
	c-0.704-2.703-1.049-6.764-1.049-12.168v-16.324c0-5.928,0.639-10.545,1.916-13.887c1.277-3.324,3.587-5.992,6.91-8.006
	c3.324-2.016,7.582-3.029,12.756-3.029c4.34,0,8.073,0.654,11.201,1.947c3.11,1.295,5.518,2.98,7.221,5.061
	c1.688,2.08,2.85,4.225,3.472,6.436C529.353,506.35,529.663,509.706,529.664,514.225L529.664,514.225z M510.309,509.428
	c0-3.26-0.18-5.322-0.523-6.158c-0.36-0.85-1.113-1.277-2.276-1.277s-1.933,0.426-2.325,1.277c-0.377,0.836-0.573,2.898-0.573,6.158
	v28.736c0,3.014,0.196,4.979,0.573,5.879c0.393,0.918,1.146,1.375,2.275,1.375c1.163,0,1.916-0.408,2.293-1.244
	c0.376-0.836,0.557-2.619,0.557-5.371V509.428L510.309,509.428z M556.404,483.424v10.021h5.403v10.119h-5.403v34.043
	c0,4.176,0.229,6.518,0.672,6.992s2.275,0.721,5.518,0.721v10.219h-7.843c-4.422,0-7.582-0.18-9.481-0.557
	c-1.883-0.361-3.554-1.213-4.994-2.539c-1.441-1.326-2.341-2.832-2.702-4.551c-0.344-1.703-0.523-5.715-0.523-12.035v-32.291h-4.127
	v-10.119h4.127v-10.023H556.404L556.404,483.424z M564.33,555.538v-11.986h4.323v-53.74h-4.323v-11.988h21.811v77.715H564.33
	L564.33,555.538z"/>
<g>
	<g>
		<g>
			<path d="M318.471,205.689c-1.293-1.293-3.088-2.031-4.915-2.031c-1.829,0-3.624,0.738-4.915,2.031
				c-1.295,1.3-2.038,3.088-2.038,4.922c0,1.829,0.743,3.616,2.038,4.916c1.291,1.292,3.086,2.029,4.915,2.029
				c1.827,0,3.621-0.738,4.915-2.029c1.293-1.3,2.038-3.087,2.038-4.916C320.509,208.777,319.764,206.99,318.471,205.689z"/>
		</g>
	</g>
	<g>
		<g>
			<path d="M236.141,264.722c-14.568,0-26.418,11.851-26.418,26.417c0,3.839,3.112,6.952,6.952,6.952
				c3.839,0,6.952-3.113,6.952-6.952c0-6.9,5.614-12.515,12.515-12.515c6.899,0,12.514,5.614,12.514,12.515
				c0,6.9-5.614,12.514-12.514,12.514c-3.84,0-6.953,3.113-6.953,6.953c0,3.838,3.113,6.951,6.953,6.951
				c14.567,0,26.418-11.851,26.418-26.417S250.708,264.722,236.141,264.722z"/>
		</g>
	</g>
	<g>
		<g>
			<path d="M339.613,133.275c-1.293-1.293-3.087-2.036-4.915-2.036c-1.829,0-3.623,0.743-4.916,2.036
				c-1.293,1.293-2.038,3.088-2.038,4.917c0,1.827,0.745,3.622,2.038,4.915c1.293,1.293,3.087,2.036,4.916,2.036
				c1.827,0,3.622-0.743,4.915-2.036c1.293-1.293,2.036-3.087,2.036-4.915C341.649,136.363,340.906,134.569,339.613,133.275z"/>
		</g>
	</g>
	<g>
		<g>
			<path d="M458.496,133.275c-1.293-1.293-3.08-2.038-4.914-2.038c-1.829,0-3.624,0.743-4.917,2.038
				c-1.293,1.293-2.038,3.086-2.038,4.915c0,1.829,0.745,3.624,2.038,4.915c1.293,1.295,3.088,2.038,4.917,2.038
				c1.828,0,3.621-0.743,4.914-2.038c1.293-1.291,2.036-3.085,2.036-4.915C460.532,136.361,459.789,134.569,458.496,133.275z"/>
		</g>
	</g>
	<g>
		<g>
			<path d="M510.59,428.792H297.85v-30.588c0-3.84-3.111-6.953-6.951-6.953h-10.958v-63.668c8.24-9.887,13.208-22.594,13.208-36.443
				c0-8.188-1.75-15.97-4.869-23.015l18.879-32.604c1.926-3.322,0.793-7.575-2.532-9.499c-3.322-1.926-7.575-0.792-9.501,2.532
				l-15.158,26.176c-8.596-10.331-20.769-17.579-34.599-19.84l66.898-82.764c4.256,6.828,11.541,11.58,19.961,12.364l-12.278,21.202
				c-1.926,3.322-0.79,7.575,2.532,9.501c1.097,0.635,2.294,0.938,3.477,0.938c2.399,0,4.732-1.244,6.024-3.47l17.854-30.833h78.521
				v15.993l-36.705,36.741c-2.173,2.173-2.66,5.517-1.197,8.221l14.445,26.709h-0.379c-9.01,0-16.339,7.33-16.339,16.338v27.563
				c0,4.025,2.045,7.691,5.472,9.811c3.403,2.103,7.565,2.296,11.135,0.513c1.623-0.81,3.376-1.221,5.208-1.221h0.775
				c6.446,0,11.688,5.245,11.688,11.69c0,6.446-5.242,11.688-11.688,11.688h-0.775c-1.832,0-3.585-0.411-5.206-1.221
				c-3.569-1.784-7.733-1.591-11.137,0.512c-3.425,2.119-5.47,5.786-5.47,9.809v27.532c0,9.01,7.329,16.34,16.337,16.34h24.42
				c-1.101,2.895-1.674,5.986-1.674,9.109v0.773c0,14.113,11.481,25.594,25.594,25.594s25.593-11.48,25.593-25.594v-0.773
				c0-3.123-0.571-6.215-1.673-9.109h24.419c9.01,0,16.34-7.33,16.34-16.34v-96.678c0-8.66-6.774-15.764-15.301-16.302
				l14.464-26.746c1.464-2.704,0.978-6.047-1.197-8.22l-36.705-36.741v-31.758c0.775-2.487,1.197-5.131,1.197-7.873
				c0-14.76-11.853-26.769-26.417-26.769c-4.474,0-8.687,1.136-12.383,3.133h-94.724c-3.549-1.776-7.546-2.781-11.777-2.781
				c-13.362,0-24.43,9.972-26.172,22.861l-80.943,100.141c-27.389,4.143-48.45,27.839-48.45,56.365
				c0,13.614,4.804,26.125,12.795,35.938l-15.122,64.173h-8.266c-3.841,0-6.953,3.113-6.953,6.953v37.541
				c0,3.84,3.112,6.953,6.953,6.953h122.359h219.69c3.838,0,6.951-3.113,6.951-6.953S514.427,428.792,510.59,428.792z
				 M503.635,265.831v96.678l0,0c0,1.344-1.089,2.434-2.431,2.434H489.73v-30.117c0-3.84-3.108-6.953-6.95-6.953
				c-3.84,0-6.952,3.113-6.952,6.953v30.117h-2.813c-4.102,0-7.927,2.209-9.982,5.764c-2.074,3.584-2.082,7.861-0.021,11.441
				c1.01,1.756,1.543,3.766,1.543,5.809v0.773c0,6.445-5.244,11.689-11.689,11.689c-6.446,0-11.69-5.244-11.69-11.689v-0.773
				c0-2.043,0.533-4.053,1.544-5.807c2.06-3.58,2.052-7.859-0.022-11.443c-2.056-3.555-5.879-5.764-9.983-5.764h-28.188
				c-1.344,0-2.433-1.09-2.433-2.434v-23.974c2.536,0.826,5.184,1.245,7.91,1.245h0.771c14.114,0,25.596-11.481,25.596-25.594
				c0-14.112-11.481-25.593-25.596-25.593H410c-2.725,0-5.372,0.418-7.91,1.245v-24.006c0-1.342,1.091-2.433,2.433-2.433h28.189
				c4.101,0,7.928-2.209,9.982-5.762c2.072-3.585,2.083-7.863,0.023-11.443c-1.011-1.755-1.544-3.764-1.544-5.809v-0.774
				c0-6.445,5.244-11.688,11.688-11.688c6.445,0,11.689,5.243,11.689,11.688v0.774c0,2.045-0.533,4.054-1.545,5.809
				c-2.058,3.58-2.049,7.859,0.025,11.443c2.056,3.553,5.879,5.762,9.98,5.762h28.188
				C502.543,263.397,503.635,264.489,503.635,265.831z M453.582,125.326c6.78,0,12.513,5.892,12.513,12.864
				c0,6.9-5.613,12.515-12.513,12.515c-6.9,0-12.515-5.614-12.515-12.515C441.067,131.218,446.797,125.326,453.582,125.326z
				 M464.896,162.058v11.688h-22.632v-11.688h0.002c3.43,1.634,7.268,2.552,11.315,2.552
				C457.629,164.609,461.465,163.691,464.896,162.058z M468.969,187.649l33.04,33.074l-15.398,28.468c-0.05,0.1-0.094,0.2-0.141,0.3
				h-9.685c1.101-2.895,1.674-5.984,1.674-9.11v-0.773c0-14.112-11.481-25.593-25.595-25.593c-14.111,0-25.592,11.481-25.592,25.593
				v0.773c0,3.124,0.569,6.215,1.672,9.11h-8.249c-0.049-0.1-0.093-0.2-0.145-0.3l-15.398-28.468l33.042-33.074H468.969z
				 M359.25,128.457h69.729c-1.169,3.021-1.816,6.301-1.816,9.733c0,2.742,0.42,5.385,1.199,7.873v1.861H359.25
				c1.199-3.014,1.866-6.296,1.866-9.734C361.116,134.754,360.449,131.472,359.25,128.457z M334.698,125.676
				c6.9,0,12.513,5.614,12.513,12.514c0,6.9-5.612,12.515-12.513,12.515c-6.9,0-12.516-5.614-12.516-12.515
				C322.182,131.29,327.799,125.676,334.698,125.676z M236.141,248.036c16.106,0,30.169,8.886,37.567,22.006
				c0.253,0.812,0.653,1.576,1.19,2.25c2.781,5.697,4.347,12.092,4.347,18.847c0,23.768-19.336,43.104-43.104,43.104
				c-23.768,0-43.104-19.335-43.104-43.104C193.037,267.371,212.373,248.036,236.141,248.036z M203.653,337.945
				c9.225,6.422,20.421,10.202,32.488,10.202c10.956,0,21.196-3.115,29.894-8.493v51.596h-74.944L203.653,337.945z M283.947,428.792
				H175.491v-23.635h108.455V428.792z"/>
		</g>
	</g>
	<g>
		<g>
			<path d="M487.696,302.333c-1.295-1.293-3.088-2.038-4.916-2.038c-1.829,0-3.621,0.745-4.916,2.038
				c-1.292,1.293-2.036,3.086-2.036,4.915c0,1.829,0.744,3.621,2.036,4.914c1.295,1.293,3.087,2.038,4.916,2.038
				c1.828,0,3.621-0.745,4.916-2.038c1.291-1.293,2.034-3.085,2.034-4.914C489.73,305.419,488.987,303.626,487.696,302.333z"/>
		</g>
	</g>
	<g>
	</g>
	<g>
	</g>
	<g>
	</g>
	<g>
	</g>
	<g>
	</g>
	<g>
	</g>
	<g>
	</g>
	<g>
	</g>
	<g>
	</g>
	<g>
	</g>
	<g>
	</g>
	<g>
	</g>
	<g>
	</g>
	<g>
	</g>
	<g>
	</g>
</g>
</svg>
