<?xml version="1.0" encoding="utf-8"?>
<!-- Generator: Adobe Illustrator 16.0.0, SVG Export Plug-In . SVG Version: 6.00 Build 0)  -->
<!DOCTYPE svg PUBLIC "-//W3C//DTD SVG 1.1//EN" "http://www.w3.org/Graphics/SVG/1.1/DTD/svg11.dtd">
<svg version="1.1" id="Calque_1" xmlns="http://www.w3.org/2000/svg" xmlns:xlink="http://www.w3.org/1999/xlink" x="0px" y="0px"
	 width="708.662px" height="708.661px" viewBox="0 0 708.662 708.661" enable-background="new 0 0 708.662 708.661"
	 xml:space="preserve">
<circle fill="#B9B900" stroke="#B9B900" stroke-width="18.89" stroke-miterlimit="2.6131" cx="354.331" cy="354.331" r="325.984"/>
<path d="M134.834,468.825v10.285h-3.709v46.107h3.709V535.5h-18.713v-66.674h18.713V468.825z M139.905,468.825h29.334v13.318h-11.97
	v12.729h10.621v12.645h-10.621V535.5h-17.364v-66.674V468.825z M190.059,468.825V535.5h-17.111v-66.676H190.059z M233.637,500.055
	v13.389c0,4.916-0.252,8.514-0.744,10.816c-0.492,2.291-1.545,4.426-3.161,6.42c-1.615,1.996-3.694,3.457-6.237,4.412
	c-2.542,0.941-5.45,1.418-8.737,1.418c-3.681,0-6.8-0.406-9.343-1.207c-2.557-0.814-4.538-2.037-5.943-3.668
	c-1.419-1.643-2.431-3.623-3.034-5.941c-0.604-2.32-0.898-5.803-0.898-10.439v-14.008c0-5.084,0.548-9.047,1.644-11.912
	c1.096-2.852,3.076-5.143,5.929-6.871c2.852-1.727,6.504-2.598,10.943-2.598c3.723,0,6.926,0.563,9.609,1.672
	c2.669,1.109,4.734,2.557,6.195,4.342c1.447,1.783,2.444,3.625,2.979,5.521s0.801,4.775,0.801,8.652L233.637,500.055z
	 M217.033,495.938c0-2.795-0.155-4.564-0.45-5.281c-0.309-0.73-0.955-1.096-1.952-1.096s-1.657,0.365-1.994,1.096
	c-0.323,0.717-0.492,2.486-0.492,5.281v24.656c0,2.586,0.169,4.271,0.492,5.043c0.337,0.787,0.983,1.182,1.952,1.182
	c0.997,0,1.644-0.352,1.967-1.068s0.478-2.248,0.478-4.607V495.938z M292.826,480.879l-6.589,54.621h-18.081
	c-0.927-6.674-2.079-15.482-3.441-26.426c-0.52,4.818-1.18,9.666-1.995,14.541l-1.771,11.885h-17.996l-7.024-54.621h14.231
	c0.168,1.432,1.39,11.871,3.681,31.328c0.238-2.023,1.461-12.475,3.694-31.328h13.781l3.428,31.328
	c0.548-9.16,1.813-19.611,3.793-31.328H292.826L292.826,480.879z M296.07,468.825h17.464c4.72,0,8.345,0.365,10.888,1.109
	c2.528,0.744,4.439,1.813,5.718,3.203c1.279,1.406,2.136,3.105,2.599,5.086c0.449,1.996,0.675,5.072,0.675,9.244v5.803
	c0,4.242-0.436,7.348-1.32,9.285c-0.871,1.953-2.487,3.457-4.819,4.496c-2.346,1.039-5.408,1.561-9.188,1.561h-4.65V535.5h-17.364
	L296.07,468.825L296.07,468.825z M313.435,480.206v16.984c0.491,0.027,0.913,0.043,1.264,0.043c1.588,0,2.684-0.395,3.302-1.182
	c0.604-0.771,0.913-2.402,0.913-4.875v-5.492c0-2.275-0.351-3.766-1.067-4.453C317.143,480.542,315.669,480.206,313.435,480.206
	L313.435,480.206z M375.558,509.118h-21.579v11.842c0,2.473,0.184,4.074,0.534,4.791c0.365,0.717,1.054,1.068,2.08,1.068
	c1.278,0,2.135-0.479,2.557-1.42c0.436-0.955,0.646-2.795,0.646-5.52v-7.223h15.763v4.047c0,3.385-0.211,5.984-0.632,7.797
	c-0.436,1.813-1.433,3.752-2.992,5.816c-1.56,2.066-3.555,3.611-5.957,4.65c-2.402,1.025-5.408,1.545-9.033,1.545
	c-3.512,0-6.617-0.506-9.314-1.531c-2.684-1.012-4.776-2.402-6.279-4.172c-1.504-1.771-2.529-3.725-3.104-5.859
	c-0.576-2.121-0.871-5.213-0.871-9.287v-15.945c0-4.775,0.646-8.541,1.939-11.309c1.292-2.752,3.399-4.875,6.336-6.336
	c2.95-1.475,6.321-2.205,10.144-2.205c4.664,0,8.513,0.885,11.548,2.656c3.034,1.77,5.17,4.115,6.392,7.037
	c1.223,2.908,1.826,7.025,1.826,12.322L375.558,509.118L375.558,509.118z M358.953,500.266v-3.99c0-2.838-0.155-4.65-0.464-5.479
	s-0.941-1.236-1.896-1.236c-1.18,0-1.911,0.352-2.191,1.053c-0.281,0.703-0.422,2.586-0.422,5.662v3.99H358.953L358.953,500.266z
	 M397.488,480.879l-0.589,7.191c2.431-5.17,5.942-7.895,10.536-8.203v19.219c-3.049,0-5.296,0.406-6.729,1.236
	c-1.433,0.828-2.304,1.967-2.641,3.441c-0.323,1.461-0.492,4.846-0.492,10.156v21.578h-16.604v-54.621h16.521L397.488,480.879z
	 M433.902,468.825v8.43c-3.47,0-5.521,0.154-6.139,0.479c-0.633,0.322-0.941,1.236-0.941,2.738v1.756h7.08v8.682h-4.045V535.5
	h-16.605v-44.592h-3.372v-8.682h3.372c0-3.609,0.126-6.025,0.365-7.234c0.252-1.223,0.871-2.305,1.84-3.244
	c0.983-0.957,2.347-1.688,4.116-2.178c1.756-0.492,4.496-0.744,8.219-0.744h6.11V468.825z M474.616,500.055v13.389
	c0,4.916-0.253,8.514-0.745,10.816c-0.491,2.291-1.545,4.426-3.16,6.42c-1.616,1.996-3.694,3.457-6.237,4.412
	c-2.543,0.941-5.451,1.418-8.738,1.418c-3.681,0-6.8-0.406-9.343-1.207c-2.557-0.814-4.537-2.037-5.942-3.668
	c-1.42-1.643-2.432-3.623-3.035-5.941c-0.604-2.32-0.898-5.803-0.898-10.439v-14.008c0-5.084,0.548-9.047,1.644-11.912
	c1.096-2.852,3.076-5.143,5.929-6.871c2.852-1.727,6.504-2.598,10.943-2.598c3.723,0,6.926,0.561,9.609,1.672
	c2.669,1.109,4.734,2.557,6.195,4.342c1.447,1.783,2.445,3.625,2.979,5.521c0.533,1.896,0.8,4.775,0.8,8.652V500.055z
	 M458.01,495.938c0-2.795-0.155-4.564-0.449-5.281c-0.31-0.73-0.956-1.096-1.953-1.096s-1.657,0.365-1.994,1.096
	c-0.323,0.717-0.492,2.486-0.492,5.281v24.656c0,2.586,0.169,4.271,0.492,5.043c0.337,0.787,0.983,1.182,1.952,1.182
	c0.998,0,1.645-0.352,1.967-1.068c0.323-0.717,0.478-2.248,0.478-4.607V495.938L458.01,495.938z M496.631,480.879l-0.59,7.191
	c2.431-5.17,5.942-7.895,10.536-8.203v19.219c-3.048,0-5.296,0.406-6.729,1.236c-1.434,0.828-2.305,1.967-2.642,3.441
	c-0.323,1.461-0.491,4.846-0.491,10.156v21.578H480.11v-54.621h16.521V480.879z M526.709,480.879l-0.252,5.197
	c1.292-2.064,2.823-3.625,4.607-4.65c1.77-1.039,3.807-1.559,6.083-1.559c4.439,0,7.924,2.064,10.48,6.209
	c1.39-2.066,2.964-3.625,4.72-4.65c1.756-1.041,3.694-1.561,5.845-1.561c2.81,0,5.155,0.689,6.996,2.066
	c1.854,1.361,3.035,3.047,3.555,5.043c0.52,1.98,0.787,5.211,0.787,9.693v38.83h-16.101v-35.613c0-4.664-0.154-7.545-0.477-8.654
	c-0.31-1.109-1.04-1.672-2.206-1.672c-1.18,0-1.938,0.547-2.275,1.645c-0.352,1.096-0.521,3.988-0.521,8.682v35.613h-16.1v-34.701
	c0-5.352-0.127-8.568-0.393-9.637c-0.253-1.068-0.984-1.602-2.164-1.602c-0.744,0-1.363,0.281-1.896,0.844
	c-0.52,0.563-0.801,1.25-0.856,2.064c-0.057,0.801-0.085,2.529-0.085,5.156v37.875h-16.1v-54.621h16.353L526.709,480.879z
	 M573.829,535.5v-10.285h3.709v-46.107h-3.709v-10.283h18.713v66.674h-18.713V535.5z"/>
<g>
	<g>
		<g id="Layer_1_157_">
			<path d="M479.831,221.379V135.19c0-7.932-6.435-14.359-14.366-14.359h-86.177c-7.938,0-14.365,6.435-14.365,14.359v35.912
				c-70.166,0-129.117,48.226-145.887,113.23l-14.931-2.633c-2.685-0.463-5.4,0.611-7.022,2.797
				c-1.612,2.186-1.868,5.102-0.637,7.531l15.558,30.722c-27.271,4.445-48.173,28.108-48.173,56.63
				c0,31.681,25.777,57.451,57.458,57.451c29.248,0,53.396-21.982,56.955-50.268h50.767v14.359c0,2.725,1.54,5.207,3.976,6.428
				c2.436,1.208,5.345,0.952,7.531-0.683l25.107-18.845c4.097,27.676,27.95,49.002,56.742,49.002
				c31.687,0.006,57.464-25.765,57.464-57.445c0-29.244-21.982-53.406-50.281-56.952v-50.777h14.373c2.711,0,5.206-1.54,6.414-3.969
				c1.222-2.426,0.966-5.345-0.67-7.521l-18.324-24.415h34.096C473.396,235.739,479.831,229.305,479.831,221.379z M221.288,408.098
				c-15.84,0-28.729-12.882-28.729-28.712s12.889-28.726,28.729-28.726c15.84,0,28.722,12.896,28.722,28.726
				S237.128,408.098,221.288,408.098z M451.112,379.379c0,15.837-12.896,28.719-28.726,28.719s-28.712-12.882-28.712-28.719
				c0-15.836,12.882-28.731,28.712-28.731S451.112,363.543,451.112,379.379z M394.409,267.675c1.222,2.436,3.703,3.969,6.422,3.969
				h14.366v50.771c-25.509,3.211-45.81,23.178-49.572,48.508l-25.121-18.843c-2.167-1.628-5.082-1.884-7.511-0.683
				c-2.43,1.234-3.976,3.703-3.976,6.429v14.359H278.25c-3.253-25.962-23.89-46.572-49.874-49.783
				c0.02-0.164,0.102-0.302,0.102-0.479c0-0.033,0-0.046,0-0.072l21.736-20.354c1.983-1.858,2.741-4.681,1.976-7.288
				c-0.788-2.613-2.958-4.557-5.64-5.029l-13.335-2.351c15.544-58.262,68.62-101.366,131.713-101.366v35.912
				c0,7.932,6.428,14.36,14.366,14.36h34.109l-18.312,24.421C393.451,262.331,393.188,265.243,394.409,267.675z M451.112,207.01
				h-57.465v-57.451h57.465V207.01z"/>
		</g>
	</g>
	<g>
	</g>
	<g>
	</g>
	<g>
	</g>
	<g>
	</g>
	<g>
	</g>
	<g>
	</g>
	<g>
	</g>
	<g>
	</g>
	<g>
	</g>
	<g>
	</g>
	<g>
	</g>
	<g>
	</g>
	<g>
	</g>
	<g>
	</g>
	<g>
	</g>
</g>
</svg>
