<?xml version="1.0" encoding="iso-8859-1"?>
<!-- Generator: Adobe Illustrator 19.0.0, SVG Export Plug-In . SVG Version: 6.00 Build 0)  -->
<svg version="1.1" id="Capa_1" xmlns="http://www.w3.org/2000/svg" xmlns:xlink="http://www.w3.org/1999/xlink" x="0px" y="0px"
	 viewBox="0 0 480 480" style="enable-background:new 0 0 480 480;" xml:space="preserve">
<g>
	<g>
		<path d="M184,96h-16V24c0-13.232-10.768-24-24-24H48C34.768,0,24,10.768,24,24v72H8c-4.416,0-8,3.584-8,8
			c0,22.056,17.944,40,40,40h112c22.056,0,40-17.944,40-40C192,99.584,188.416,96,184,96z M40,24c0-4.408,3.592-8,8-8h96
			c4.408,0,8,3.592,8,8v72H40V24z M152,128H40c-10.432,0-19.328-6.688-22.632-16H32h128h14.632C171.328,121.312,162.432,128,152,128z"/>
	</g>
</g>
<g>
	<g>
		<path d="M128,32H64c-4.416,0-8,3.584-8,8v32c0,4.416,3.584,8,8,8h64c4.416,0,8-3.584,8-8V40C136,35.584,132.416,32,128,32z
			 M120,64H72V48h48V64z"/>
	</g>
</g>
<g>
	<g>
		<path d="M472,96h-16V24c0-13.232-10.768-24-24-24h-96c-13.232,0-24,10.768-24,24v72h-16c-4.416,0-8,3.584-8,8
			c0,22.056,17.944,40,40,40h112c22.056,0,40-17.944,40-40C480,99.584,476.416,96,472,96z M328,24c0-4.408,3.592-8,8-8h96
			c4.408,0,8,3.592,8,8v72H328V24z M440,128H328c-10.432,0-19.328-6.688-22.632-16H320h128h14.632
			C459.328,121.312,450.432,128,440,128z"/>
	</g>
</g>
<g>
	<g>
		<path d="M416,32h-64c-4.416,0-8,3.584-8,8v32c0,4.416,3.584,8,8,8h64c4.416,0,8-3.584,8-8V40C424,35.584,420.416,32,416,32z
			 M408,64h-48V48h48V64z"/>
	</g>
</g>
<g>
	<g>
		<path d="M184,432h-16v-72c0-13.232-10.768-24-24-24H48c-13.232,0-24,10.768-24,24v72H8c-4.416,0-8,3.584-8,8
			c0,22.056,17.944,40,40,40h112c22.056,0,40-17.944,40-40C192,435.584,188.416,432,184,432z M40,360c0-4.408,3.592-8,8-8h96
			c4.408,0,8,3.592,8,8v72H40V360z M152,464H40c-10.432,0-19.328-6.688-22.632-16H32h128h14.632
			C171.328,457.312,162.432,464,152,464z"/>
	</g>
</g>
<g>
	<g>
		<path d="M128,368H64c-4.416,0-8,3.584-8,8v32c0,4.416,3.584,8,8,8h64c4.416,0,8-3.584,8-8v-32C136,371.584,132.416,368,128,368z
			 M120,400H72v-16h48V400z"/>
	</g>
</g>
<g>
	<g>
		<path d="M472,432h-16v-72c0-13.232-10.768-24-24-24h-96c-13.232,0-24,10.768-24,24v72h-16c-4.416,0-8,3.584-8,8
			c0,22.056,17.944,40,40,40h112c22.056,0,40-17.944,40-40C480,435.584,476.416,432,472,432z M328,360c0-4.408,3.592-8,8-8h96
			c4.408,0,8,3.592,8,8v72H328V360z M440,464H328c-10.432,0-19.328-6.688-22.632-16H320h128h14.632
			C459.328,457.312,450.432,464,440,464z"/>
	</g>
</g>
<g>
	<g>
		<path d="M416,368h-64c-4.416,0-8,3.584-8,8v32c0,4.416,3.584,8,8,8h64c4.416,0,8-3.584,8-8v-32C424,371.584,420.416,368,416,368z
			 M408,400h-48v-16h48V400z"/>
	</g>
</g>
<g>
	<g>
		<path d="M351.344,228.048c-0.136-1.248-0.392-2.472-0.568-3.712c-0.376-2.656-0.76-5.312-1.32-7.912
			c-0.328-1.536-0.784-3.04-1.176-4.56c-0.576-2.224-1.152-4.44-1.864-6.608c-0.552-1.696-1.2-3.344-1.832-5
			c-0.728-1.904-1.464-3.8-2.288-5.656c-0.784-1.768-1.64-3.496-2.52-5.224c-0.84-1.648-1.712-3.28-2.624-4.88
			c-1.016-1.768-2.072-3.512-3.184-5.232c-0.952-1.472-1.96-2.904-2.976-4.32c-1.216-1.696-2.44-3.384-3.752-5.016
			c-1.112-1.384-2.304-2.696-3.48-4.024c-1.36-1.536-2.688-3.08-4.136-4.552c-1.448-1.472-3.008-2.824-4.536-4.216
			c-1.2-1.088-2.296-2.256-3.544-3.288c-0.064-0.048-0.144-0.072-0.208-0.12C291.952,137.672,267.088,128,240,128
			c-35.688,0-67.456,16.84-87.984,42.928c-0.048,0.064-0.128,0.08-0.184,0.144c-0.552,0.704-1.016,1.448-1.544,2.16
			c-1.344,1.8-2.68,3.592-3.92,5.472c-0.648,0.984-1.216,2.016-1.832,3.016c-1.152,1.88-2.328,3.752-3.376,5.704
			c-0.592,1.104-1.072,2.248-1.624,3.368c-1.736,3.536-3.288,7.168-4.648,10.896c-0.472,1.288-1.016,2.544-1.432,3.848
			c-0.008,0.024,0,0.056-0.008,0.08C129.944,216.464,128,228,128,240c0,3.464,0.208,6.888,0.52,10.288
			c0.088,0.96,0.208,1.904,0.32,2.864c0.312,2.64,0.712,5.248,1.2,7.832c0.152,0.776,0.272,1.568,0.44,2.336
			c1.448,6.832,3.528,13.448,6.176,19.808c0.128,0.312,0.272,0.624,0.4,0.936c8.376,19.592,22.224,36.512,40.16,48.632
			c0.192,0.128,0.392,0.256,0.584,0.384c2.536,1.696,5.16,3.28,7.856,4.776c0.576,0.32,1.144,0.648,1.728,0.96
			c2.696,1.432,5.448,2.776,8.288,4c0.32,0.136,0.624,0.296,0.936,0.432c0.104,0.04,0.192,0.096,0.296,0.136
			c0.056,0.024,0.112,0.016,0.168,0.032C210.304,348.928,224.8,352,240,352c27.088,0,51.952-9.672,71.336-25.728
			c0.064-0.048,0.144-0.064,0.208-0.12c1.248-1.04,2.344-2.208,3.544-3.288c1.528-1.392,3.088-2.744,4.536-4.216
			c1.448-1.464,2.776-3.016,4.136-4.552c1.176-1.328,2.36-2.64,3.48-4.024c1.312-1.632,2.536-3.32,3.752-5.016
			c1.024-1.424,2.024-2.848,2.976-4.32c1.112-1.72,2.168-3.456,3.184-5.232c0.92-1.6,1.784-3.232,2.624-4.88
			c0.88-1.728,1.736-3.456,2.52-5.224c0.824-1.856,1.56-3.744,2.288-5.656c0.632-1.664,1.28-3.312,1.832-5
			c0.712-2.168,1.288-4.384,1.864-6.608c0.392-1.52,0.848-3.016,1.176-4.56c0.56-2.6,0.944-5.248,1.32-7.912
			c0.176-1.24,0.432-2.464,0.568-3.712C351.76,248.024,352,244.04,352,240C352,235.96,351.76,231.976,351.344,228.048z
			 M153.8,198.016c0.904-1.84,1.824-3.664,2.84-5.448c0.44-0.776,0.928-1.528,1.392-2.288c1.176-1.928,2.392-3.832,3.704-5.688
			c0.144-0.2,0.296-0.392,0.448-0.592H176c4.408,0,8,3.592,8,8s-3.592,8-8,8h-23.16C153.152,199.336,153.48,198.68,153.8,198.016z
			 M224,328h-22.248c-0.584-0.256-1.144-0.56-1.72-0.832c-2.816-1.288-5.528-2.72-8.176-4.248c-1.24-0.72-2.464-1.456-3.664-2.232
			c-2.12-1.36-4.136-2.824-6.128-4.328c-1.808-1.376-3.568-2.8-5.28-4.304c-1.8-1.576-3.576-3.184-5.248-4.888
			c-1.344-1.376-2.616-2.816-3.88-4.264c-1.184-1.36-2.328-2.76-3.432-4.184c-1.152-1.488-2.312-2.968-3.384-4.52
			c-1.76-2.568-3.408-5.216-4.912-7.944c-0.768-1.392-1.432-2.84-2.128-4.272c-1.08-2.208-2.104-4.448-3.008-6.744
			c-0.536-1.344-1.024-2.712-1.496-4.088c-0.896-2.616-1.68-5.288-2.344-7.992c-0.248-1.008-0.56-1.984-0.776-3.008
			c-0.8-3.736-1.376-7.536-1.728-11.392c-0.024-0.256-0.016-0.512-0.04-0.768H200c4.408,0,8,3.592,8,8c0,4.408-3.592,8-8,8
			c-13.232,0-24,10.768-24,24S186.768,312,200,312h24c4.408,0,8,3.592,8,8C232,324.408,228.408,328,224,328z M241.832,335.912
			C245.624,331.664,248,326.128,248,320c0-13.232-10.768-24-24-24h-24c-4.408,0-8-3.592-8-8c0-4.408,3.592-8,8-8
			c13.232,0,24-10.768,24-24s-10.768-24-24-24h-55.592c0.456-5.48,1.416-10.816,2.752-16H176c13.232,0,24-10.768,24-24
			c0-13.016-10.424-23.584-23.36-23.936C193.568,153.136,215.712,144,240,144c13.6,0,26.52,2.88,38.248,8H264
			c-13.232,0-24,10.768-24,24s10.768,24,24,24h24c4.408,0,8,3.592,8,8s-3.592,8-8,8h-24c-13.232,0-24,10.768-24,24s10.768,24,24,24
			h32c4.408,0,8,3.592,8,8c0,4.408-3.592,8-8,8h-8c-13.232,0-24,10.768-24,24c0,10.704,7.096,19.688,16.792,22.776
			C268.92,332.384,255.752,335.648,241.832,335.912z M335.464,250.064c-0.104,1.024-0.32,2.008-0.464,3.024
			c-0.312,2.264-0.624,4.536-1.088,6.76c-0.28,1.312-0.664,2.576-1,3.864c-0.472,1.864-0.928,3.728-1.512,5.552
			c-0.472,1.48-1.056,2.912-1.6,4.36c-0.584,1.552-1.144,3.12-1.808,4.64c-0.688,1.576-1.464,3.096-2.232,4.624
			c-0.664,1.32-1.312,2.64-2.032,3.928c-0.888,1.576-1.848,3.104-2.816,4.624c-0.744,1.168-1.496,2.336-2.296,3.48
			c-1.048,1.496-2.152,2.952-3.28,4.384c-0.872,1.104-1.76,2.184-2.68,3.248c-1.168,1.36-2.368,2.688-3.616,3.976
			c-1.032,1.072-2.112,2.104-3.2,3.136c-0.84,0.792-1.696,1.568-2.568,2.336H288c-4.408,0-8-3.592-8-8c0-4.408,3.592-8,8-8h8
			c13.232,0,24-10.768,24-24s-10.768-24-24-24h-32c-4.408,0-8-3.592-8-8c0-4.408,3.592-8,8-8h24c13.232,0,24-10.768,24-24
			s-10.768-24-24-24h-24c-4.408,0-8-3.592-8-8s3.592-8,8-8h39.288c0.872,0.768,1.728,1.536,2.568,2.336
			c1.088,1.032,2.168,2.064,3.2,3.136c1.24,1.288,2.448,2.616,3.616,3.976c0.92,1.064,1.808,2.152,2.68,3.248
			c1.128,1.432,2.232,2.888,3.28,4.384c0.8,1.136,1.552,2.304,2.296,3.48c0.968,1.52,1.928,3.048,2.816,4.624
			c0.72,1.288,1.376,2.608,2.032,3.928c0.768,1.528,1.544,3.048,2.232,4.624c0.664,1.52,1.224,3.08,1.808,4.64
			c0.544,1.448,1.128,2.88,1.6,4.36c0.584,1.824,1.04,3.688,1.512,5.552c0.328,1.288,0.72,2.56,1,3.864
			c0.472,2.224,0.776,4.496,1.088,6.76c0.136,1.016,0.352,2,0.464,3.024c0.336,3.328,0.52,6.68,0.52,10.064
			C336,243.384,335.816,246.736,335.464,250.064z">
        <animateTransform attributeName="transform"
            attributeType="XML"
            type="rotate"
            from="0 240 240"
            to="360 240 240"
            dur="2s"
            repeatCount="indefinite"/>
        </path>
	</g>
</g>
<g>
	<g>
		<rect x="184" y="48" width="16" height="16"/>
	</g>
</g>
<g>
	<g>
		<rect x="216" y="48" width="16" height="16"/>
	</g>
</g>
<g>
	<g>
		<rect x="248" y="48" width="16" height="16"/>
	</g>
</g>
<g>
	<g>
		<rect x="280" y="48" width="16" height="16"/>
	</g>
</g>
<g>
	<g>
		<rect x="384" y="168" width="16" height="16"/>
	</g>
</g>
<g>
	<g>
		<rect x="384" y="200" width="16" height="16"/>
	</g>
</g>
<g>
	<g>
		<rect x="384" y="232" width="16" height="16"/>
	</g>
</g>
<g>
	<g>
		<rect x="384" y="264" width="16" height="16"/>
	</g>
</g>
<g>
	<g>
		<rect x="384" y="296" width="16" height="16"/>
	</g>
</g>
<g>
	<g>
		<rect x="80" y="168" width="16" height="16"/>
	</g>
</g>
<g>
	<g>
		<rect x="80" y="200" width="16" height="16"/>
	</g>
</g>
<g>
	<g>
		<rect x="80" y="232" width="16" height="16"/>
	</g>
</g>
<g>
	<g>
		<rect x="80" y="264" width="16" height="16"/>
	</g>
</g>
<g>
	<g>
		<rect x="80" y="296" width="16" height="16"/>
	</g>
</g>
<g>
	<g>
		<rect x="184" y="384" width="16" height="16"/>
	</g>
</g>
<g>
	<g>
		<rect x="216" y="384" width="16" height="16"/>
	</g>
</g>
<g>
	<g>
		<rect x="248" y="384" width="16" height="16"/>
	</g>
</g>
<g>
	<g>
		<rect x="280" y="384" width="16" height="16"/>
	</g>
    </g>
</svg>
